<svg xmlns="http://www.w3.org/2000/svg" xmlns:xlink="http://www.w3.org/1999/xlink" width="500" zoomAndPan="magnify" viewBox="0 0 375 374.999991" height="500" preserveAspectRatio="xMidYMid meet" version="1.0"><defs><g/><clipPath id="f8310f3c2e"><path d="M 148.15625 140 L 298 140 L 298 217.691406 L 148.15625 217.691406 Z M 148.15625 140 " clip-rule="nonzero"/></clipPath><clipPath id="6aa9acecf3"><path d="M 203 167 L 225 167 L 225 217.691406 L 203 217.691406 Z M 203 167 " clip-rule="nonzero"/></clipPath><clipPath id="80667a0b2e"><path d="M 203 95.441406 L 225 95.441406 L 225 152 L 203 152 Z M 203 95.441406 " clip-rule="nonzero"/></clipPath><clipPath id="b12d31b769"><path d="M 148.15625 127 L 170 127 L 170 185 L 148.15625 185 Z M 148.15625 127 " clip-rule="nonzero"/></clipPath></defs><g clip-path="url(#f8310f3c2e)"><path fill="#f13223" d="M 148.335938 217.710938 C 148.335938 217.710938 201.636719 151.203125 297.972656 141.667969 C 297.972656 141.667969 215.996094 128.785156 148.335938 193.296875 " fill-opacity="1" fill-rule="nonzero"/></g><path fill="#000000" d="M 203.597656 172.613281 L 203.597656 178.121094 C 210.058594 174.324219 217.0625 170.617188 224.597656 167.144531 L 224.597656 161.640625 C 217.0625 165.109375 210.058594 168.816406 203.597656 172.613281 " fill-opacity="1" fill-rule="nonzero"/><g clip-path="url(#6aa9acecf3)"><path fill="#343434" d="M 203.597656 178.121094 L 203.597656 217.710938 L 224.597656 204.375 L 224.597656 167.144531 C 217.0625 170.617188 210.058594 174.324219 203.597656 178.121094 " fill-opacity="1" fill-rule="nonzero"/></g><g clip-path="url(#80667a0b2e)"><path fill="#343434" d="M 203.597656 111.511719 L 203.597656 151.566406 C 210.804688 148.792969 217.84375 146.589844 224.597656 144.847656 L 224.597656 95.457031 L 203.597656 111.511719 " fill-opacity="1" fill-rule="nonzero"/></g><g clip-path="url(#b12d31b769)"><path fill="#343434" d="M 148.335938 143.414062 L 148.335938 184.671875 C 155.257812 178.710938 162.292969 173.5 169.335938 168.957031 L 169.335938 127.359375 L 148.335938 143.414062 " fill-opacity="1" fill-rule="nonzero"/></g><g fill="#000000" fill-opacity="1"><g transform="translate(106.925402, 258.543895)"><g><path d="M 22.828125 0 L 17.15625 0 L 17.15625 -8.671875 L 7.90625 -8.671875 L 7.90625 0 L 2.234375 0 L 2.234375 -22.328125 L 7.90625 -22.328125 L 7.90625 -13.140625 L 17.15625 -13.140625 L 17.15625 -22.328125 L 22.828125 -22.328125 Z M 22.828125 0 "/></g></g></g><g fill="#000000" fill-opacity="1"><g transform="translate(136.422192, 258.543895)"><g><path d="M 17.0625 -4.109375 L 7.296875 -4.109375 L 5.671875 0 L -0.15625 0 L 9.46875 -22.328125 L 15.3125 -22.328125 L 24.71875 0 L 18.65625 0 Z M 15.40625 -8.421875 L 12.21875 -16.671875 L 8.96875 -8.421875 Z M 15.40625 -8.421875 "/></g></g></g><g fill="#000000" fill-opacity="1"><g transform="translate(165.408805, 258.543895)"><g><path d="M 15.6875 0 L 12.375 -6.28125 L 7.90625 -6.28125 L 7.90625 0 L 2.234375 0 L 2.234375 -22.328125 L 12.21875 -22.328125 C 15.164062 -22.328125 17.445312 -21.648438 19.0625 -20.296875 C 20.6875 -18.941406 21.5 -17.023438 21.5 -14.546875 C 21.5 -11.097656 20.144531 -8.703125 17.4375 -7.359375 L 22.125 0 Z M 7.90625 -10.75 L 12.21875 -10.75 C 13.445312 -10.75 14.398438 -11.054688 15.078125 -11.671875 C 15.765625 -12.285156 16.109375 -13.175781 16.109375 -14.34375 C 16.109375 -15.5 15.765625 -16.375 15.078125 -16.96875 C 14.398438 -17.5625 13.445312 -17.859375 12.21875 -17.859375 L 7.90625 -17.859375 Z M 7.90625 -10.75 "/></g></g></g><g fill="#000000" fill-opacity="1"><g transform="translate(192.928628, 258.543895)"><g><path d="M 2.234375 -22.328125 L 11.953125 -22.328125 C 14.804688 -22.328125 17.019531 -21.648438 18.59375 -20.296875 C 20.164062 -18.941406 20.953125 -17.023438 20.953125 -14.546875 C 20.953125 -11.929688 20.164062 -9.898438 18.59375 -8.453125 C 17.019531 -7.003906 14.804688 -6.28125 11.953125 -6.28125 L 7.90625 -6.28125 L 7.90625 0 L 2.234375 0 Z M 7.90625 -17.859375 L 7.90625 -10.75 L 11.671875 -10.75 C 12.921875 -10.75 13.882812 -11.054688 14.5625 -11.671875 C 15.25 -12.285156 15.59375 -13.175781 15.59375 -14.34375 C 15.59375 -15.5 15.25 -16.375 14.5625 -16.96875 C 13.882812 -17.5625 12.921875 -17.859375 11.671875 -17.859375 Z M 7.90625 -17.859375 "/></g></g></g><g fill="#000000" fill-opacity="1"><g transform="translate(219.04544, 258.543895)"><g><path d="M 19.703125 -17.859375 L 7.90625 -17.859375 L 7.90625 -13.421875 L 18.5625 -13.421875 L 18.5625 -8.96875 L 7.90625 -8.96875 L 7.90625 -4.46875 L 20.0625 -4.46875 L 20.0625 0 L 2.234375 0 L 2.234375 -22.328125 L 19.703125 -22.328125 Z M 19.703125 -17.859375 "/></g></g></g><g fill="#000000" fill-opacity="1"><g transform="translate(244.970929, 258.543895)"><g><path d="M 15.6875 0 L 12.375 -6.28125 L 7.90625 -6.28125 L 7.90625 0 L 2.234375 0 L 2.234375 -22.328125 L 12.21875 -22.328125 C 15.164062 -22.328125 17.445312 -21.648438 19.0625 -20.296875 C 20.6875 -18.941406 21.5 -17.023438 21.5 -14.546875 C 21.5 -11.097656 20.144531 -8.703125 17.4375 -7.359375 L 22.125 0 Z M 7.90625 -10.75 L 12.21875 -10.75 C 13.445312 -10.75 14.398438 -11.054688 15.078125 -11.671875 C 15.765625 -12.285156 16.109375 -13.175781 16.109375 -14.34375 C 16.109375 -15.5 15.765625 -16.375 15.078125 -16.96875 C 14.398438 -17.5625 13.445312 -17.859375 12.21875 -17.859375 L 7.90625 -17.859375 Z M 7.90625 -10.75 "/></g></g></g><g fill="#000000" fill-opacity="1"><g transform="translate(157.165731, 276.276164)"><g><path d="M 3.921875 0.0625 C 3.265625 0.0625 2.675781 -0.0820312 2.15625 -0.375 C 1.632812 -0.664062 1.222656 -1.0625 0.921875 -1.5625 C 0.628906 -2.070312 0.484375 -2.644531 0.484375 -3.28125 C 0.484375 -3.914062 0.628906 -4.484375 0.921875 -4.984375 C 1.222656 -5.492188 1.632812 -5.894531 2.15625 -6.1875 C 2.6875 -6.476562 3.273438 -6.625 3.921875 -6.625 C 4.410156 -6.625 4.859375 -6.539062 5.265625 -6.375 C 5.679688 -6.207031 6.035156 -5.96875 6.328125 -5.65625 L 5.890625 -5.21875 C 5.378906 -5.738281 4.734375 -6 3.953125 -6 C 3.429688 -6 2.957031 -5.878906 2.53125 -5.640625 C 2.101562 -5.398438 1.769531 -5.070312 1.53125 -4.65625 C 1.289062 -4.25 1.171875 -3.789062 1.171875 -3.28125 C 1.171875 -2.769531 1.289062 -2.304688 1.53125 -1.890625 C 1.769531 -1.484375 2.101562 -1.160156 2.53125 -0.921875 C 2.957031 -0.679688 3.429688 -0.5625 3.953125 -0.5625 C 4.734375 -0.5625 5.378906 -0.820312 5.890625 -1.34375 L 6.328125 -0.90625 C 6.035156 -0.59375 5.679688 -0.351562 5.265625 -0.1875 C 4.859375 -0.0195312 4.410156 0.0625 3.921875 0.0625 Z M 3.921875 0.0625 "/></g></g></g><g fill="#000000" fill-opacity="1"><g transform="translate(165.782761, 276.276164)"><g><path d="M 5.546875 0 L 4.046875 -2.109375 C 3.878906 -2.085938 3.707031 -2.078125 3.53125 -2.078125 L 1.765625 -2.078125 L 1.765625 0 L 1.0625 0 L 1.0625 -6.5625 L 3.53125 -6.5625 C 4.363281 -6.5625 5.015625 -6.359375 5.484375 -5.953125 C 5.960938 -5.554688 6.203125 -5.007812 6.203125 -4.3125 C 6.203125 -3.800781 6.070312 -3.367188 5.8125 -3.015625 C 5.550781 -2.660156 5.179688 -2.40625 4.703125 -2.25 L 6.3125 0 Z M 3.5 -2.671875 C 4.15625 -2.671875 4.65625 -2.8125 5 -3.09375 C 5.34375 -3.382812 5.515625 -3.789062 5.515625 -4.3125 C 5.515625 -4.84375 5.34375 -5.25 5 -5.53125 C 4.65625 -5.820312 4.15625 -5.96875 3.5 -5.96875 L 1.765625 -5.96875 L 1.765625 -2.671875 Z M 3.5 -2.671875 "/></g></g></g><g fill="#000000" fill-opacity="1"><g transform="translate(174.437294, 276.276164)"><g><path d="M 5.703125 -0.59375 L 5.703125 0 L 1.0625 0 L 1.0625 -6.5625 L 5.5625 -6.5625 L 5.5625 -5.96875 L 1.765625 -5.96875 L 1.765625 -3.625 L 5.15625 -3.625 L 5.15625 -3.03125 L 1.765625 -3.03125 L 1.765625 -0.59375 Z M 5.703125 -0.59375 "/></g></g></g><g fill="#000000" fill-opacity="1"><g transform="translate(182.585575, 276.276164)"><g><path d="M 5.1875 -1.75 L 1.53125 -1.75 L 0.734375 0 L 0.015625 0 L 3.015625 -6.5625 L 3.703125 -6.5625 L 6.703125 0 L 5.96875 0 Z M 4.9375 -2.3125 L 3.359375 -5.84375 L 1.78125 -2.3125 Z M 4.9375 -2.3125 "/></g></g></g><g fill="#000000" fill-opacity="1"><g transform="translate(191.183859, 276.276164)"><g><path d="M 2.34375 -5.96875 L 0.03125 -5.96875 L 0.03125 -6.5625 L 5.34375 -6.5625 L 5.34375 -5.96875 L 3.03125 -5.96875 L 3.03125 0 L 2.34375 0 Z M 2.34375 -5.96875 "/></g></g></g><g fill="#000000" fill-opacity="1"><g transform="translate(198.441512, 276.276164)"><g><path d="M 1.0625 -6.5625 L 1.765625 -6.5625 L 1.765625 0 L 1.0625 0 Z M 1.0625 -6.5625 "/></g></g></g><g fill="#000000" fill-opacity="1"><g transform="translate(203.149148, 276.276164)"><g><path d="M 6.53125 -6.5625 L 3.625 0 L 2.9375 0 L 0.03125 -6.5625 L 0.78125 -6.5625 L 3.296875 -0.859375 L 5.828125 -6.5625 Z M 6.53125 -6.5625 "/></g></g></g><g fill="#000000" fill-opacity="1"><g transform="translate(211.569304, 276.276164)"><g><path d="M 5.703125 -0.59375 L 5.703125 0 L 1.0625 0 L 1.0625 -6.5625 L 5.5625 -6.5625 L 5.5625 -5.96875 L 1.765625 -5.96875 L 1.765625 -3.625 L 5.15625 -3.625 L 5.15625 -3.03125 L 1.765625 -3.03125 L 1.765625 -0.59375 Z M 5.703125 -0.59375 "/></g></g></g></svg>