<svg xmlns="http://www.w3.org/2000/svg" xmlns:xlink="http://www.w3.org/1999/xlink" width="500" zoomAndPan="magnify" viewBox="0 0 375 374.999991" height="500" preserveAspectRatio="xMidYMid meet" version="1.0"><defs><g/><clipPath id="7a66cd5a76"><path d="M 125 111.90625 L 262.5 111.90625 L 262.5 201.074219 L 125 201.074219 Z M 125 111.90625 " clip-rule="nonzero"/></clipPath></defs><path fill="#38b6ff" d="M 253.089844 159.625 C 253.089844 159.625 252.640625 180.167969 225.800781 178.035156 C 214.582031 177.144531 205.3125 172.988281 196.34375 168.097656 C 195.484375 168.929688 194.613281 169.789062 193.734375 170.671875 C 190.9375 173.484375 188.183594 176.140625 185.464844 178.613281 C 200.710938 186.378906 214.242188 191.253906 225.128906 190.6875 C 257.707031 188.988281 253.089844 159.625 253.089844 159.625 " fill-opacity="1" fill-rule="nonzero"/><path fill="#38b6ff" d="M 172.59375 140.679688 C 172.59375 133.320312 166.65625 127.359375 159.332031 127.359375 C 152.007812 127.359375 146.066406 133.320312 146.066406 140.679688 C 146.066406 144.03125 147.300781 147.089844 149.335938 149.433594 C 145.984375 149.207031 142.457031 149.230469 138.722656 149.554688 C 125.433594 150.71875 115.21875 159.226562 114.023438 169.855469 C 112.503906 183.335938 125.277344 190.578125 125.277344 190.578125 C 125.277344 190.578125 113.765625 178.046875 126.703125 168.363281 C 136.3125 161.167969 150.230469 161.65625 172.121094 171.851562 C 175.933594 168.292969 179.484375 164.464844 183.085938 160.628906 C 177.484375 157.542969 171.6875 154.660156 165.308594 152.570312 C 169.632812 150.375 172.59375 145.875 172.59375 140.679688 " fill-opacity="1" fill-rule="nonzero"/><path fill="#38b6ff" d="M 196.34375 168.097656 C 195.484375 168.929688 194.613281 169.789062 193.734375 170.671875 C 190.9375 173.484375 188.183594 176.140625 185.464844 178.613281 C 188.902344 180.363281 192.25 181.964844 195.5 183.394531 C 198.171875 180.957031 200.878906 178.339844 203.628906 175.578125 C 204.515625 174.6875 205.386719 173.828125 206.253906 172.984375 C 202.859375 171.53125 199.582031 169.863281 196.34375 168.097656 " fill-opacity="1" fill-rule="nonzero"/><g clip-path="url(#7a66cd5a76)"><path fill="#f09c13" d="M 260.910156 146.949219 C 257.914062 140.054688 250.960938 135.480469 242.5625 134.351562 C 244.796875 131.96875 246.167969 128.757812 246.167969 125.226562 C 246.167969 117.867188 240.230469 111.90625 232.902344 111.90625 C 225.578125 111.90625 219.640625 117.867188 219.640625 125.226562 C 219.640625 129.871094 222.011719 133.960938 225.601562 136.34375 C 192.480469 146.464844 184.84375 176.507812 156.480469 187.804688 C 131.449219 197.773438 125.003906 178.273438 125.003906 178.273438 C 125.003906 178.273438 129.195312 207.699219 160.828125 199.695312 C 172.359375 196.777344 185.003906 186.738281 198.570312 173.101562 C 220.375 151.183594 235.5625 144.699219 248.351562 149.273438 C 263.554688 154.707031 256.222656 170.082031 256.222656 170.082031 C 256.222656 170.082031 266.3125 159.386719 260.910156 146.949219 " fill-opacity="1" fill-rule="nonzero"/></g><g fill="#ffffff" fill-opacity="1"><g transform="translate(101.430365, 235.691308)"><g><path d="M 14.03125 -14.84375 L 5.25 -14.84375 L 5.25 -9.796875 L 13.203125 -9.796875 L 13.203125 -7.171875 L 5.25 -7.171875 L 5.25 0 L 2.296875 0 L 2.296875 -17.5 L 14.046875 -17.5 Z M 14.03125 -14.84375 "/></g></g></g><g fill="#ffffff" fill-opacity="1"><g transform="translate(117.678116, 235.691308)"><g><path d="M 13.40625 0 L 10.203125 -5.296875 C 10.035156 -5.285156 9.769531 -5.28125 9.40625 -5.28125 L 5.25 -5.28125 L 5.25 0 L 2.296875 0 L 2.296875 -17.5 L 9.40625 -17.5 C 11.632812 -17.5 13.363281 -16.976562 14.59375 -15.9375 C 15.832031 -14.894531 16.453125 -13.425781 16.453125 -11.53125 C 16.453125 -10.125 16.140625 -8.9375 15.515625 -7.96875 C 14.890625 -7.007812 13.992188 -6.300781 12.828125 -5.84375 L 16.75 0 Z M 5.25 -7.921875 L 9.40625 -7.921875 C 12.238281 -7.921875 13.65625 -9.097656 13.65625 -11.453125 C 13.65625 -13.710938 12.238281 -14.84375 9.40625 -14.84375 L 5.25 -14.84375 Z M 5.25 -7.921875 "/></g></g></g><g fill="#ffffff" fill-opacity="1"><g transform="translate(137.625285, 235.691308)"><g><path d="M 5.25 0 L 2.296875 0 L 2.296875 -17.5 L 5.25 -17.5 Z M 5.25 0 "/></g></g></g><g fill="#ffffff" fill-opacity="1"><g transform="translate(147.049119, 235.691308)"><g><path d="M 14.796875 -14.84375 L 5.25 -14.84375 L 5.25 -10.125 L 13.796875 -10.125 L 13.796875 -7.46875 L 5.25 -7.46875 L 5.25 -2.65625 L 15.09375 -2.65625 L 15.09375 0 L 2.296875 0 L 2.296875 -17.5 L 14.796875 -17.5 Z M 14.796875 -14.84375 "/></g></g></g><g fill="#ffffff" fill-opacity="1"><g transform="translate(165.321547, 235.691308)"><g><path d="M 17.46875 0 L 14.578125 0 L 5.25 -12.546875 L 5.25 0 L 2.296875 0 L 2.296875 -17.5 L 5.203125 -17.5 L 14.578125 -4.921875 L 14.578125 -17.5 L 17.46875 -17.5 Z M 17.46875 0 "/></g></g></g><g fill="#ffffff" fill-opacity="1"><g transform="translate(186.99344, 235.691308)"><g><path d="M 2.296875 -17.5 L 9.46875 -17.5 C 12.09375 -17.5 14.257812 -16.671875 15.96875 -15.015625 C 17.675781 -13.367188 18.53125 -11.28125 18.53125 -8.75 C 18.53125 -6.21875 17.671875 -4.125 15.953125 -2.46875 C 14.234375 -0.820312 12.050781 0 9.40625 0 L 2.296875 0 Z M 5.25 -14.84375 L 5.25 -2.65625 L 9.546875 -2.65625 C 11.265625 -2.65625 12.691406 -3.222656 13.828125 -4.359375 C 14.972656 -5.503906 15.546875 -6.957031 15.546875 -8.71875 C 15.546875 -10.488281 14.957031 -11.953125 13.78125 -13.109375 C 12.613281 -14.265625 11.160156 -14.84375 9.421875 -14.84375 Z M 5.25 -14.84375 "/></g></g></g><g fill="#ffffff" fill-opacity="1"><g transform="translate(208.24039, 235.691308)"><g><path d="M 8.046875 -17.625 C 10.316406 -17.625 12.359375 -17.023438 14.171875 -15.828125 L 12.953125 -13.21875 C 11.171875 -14.300781 9.460938 -14.84375 7.828125 -14.84375 C 6.941406 -14.84375 6.242188 -14.6875 5.734375 -14.375 C 5.222656 -14.0625 4.96875 -13.613281 4.96875 -13.03125 C 4.96875 -12.445312 5.203125 -11.945312 5.671875 -11.53125 C 6.140625 -11.125 6.722656 -10.820312 7.421875 -10.625 C 8.117188 -10.4375 8.875 -10.195312 9.6875 -9.90625 C 10.507812 -9.613281 11.269531 -9.304688 11.96875 -8.984375 C 12.675781 -8.660156 13.257812 -8.148438 13.71875 -7.453125 C 14.175781 -6.765625 14.40625 -5.929688 14.40625 -4.953125 C 14.40625 -3.421875 13.789062 -2.195312 12.5625 -1.28125 C 11.332031 -0.363281 9.742188 0.09375 7.796875 0.09375 C 6.460938 0.09375 5.171875 -0.15625 3.921875 -0.65625 C 2.671875 -1.15625 1.582031 -1.828125 0.65625 -2.671875 L 1.921875 -5.21875 C 2.804688 -4.40625 3.773438 -3.773438 4.828125 -3.328125 C 5.890625 -2.890625 6.894531 -2.671875 7.84375 -2.671875 C 8.882812 -2.671875 9.691406 -2.859375 10.265625 -3.234375 C 10.835938 -3.609375 11.125 -4.128906 11.125 -4.796875 C 11.125 -5.398438 10.890625 -5.90625 10.421875 -6.3125 C 9.953125 -6.71875 9.367188 -7.015625 8.671875 -7.203125 C 7.972656 -7.398438 7.210938 -7.632812 6.390625 -7.90625 C 5.578125 -8.1875 4.820312 -8.476562 4.125 -8.78125 C 3.425781 -9.09375 2.84375 -9.585938 2.375 -10.265625 C 1.90625 -10.953125 1.671875 -11.78125 1.671875 -12.75 C 1.671875 -14.226562 2.253906 -15.410156 3.421875 -16.296875 C 4.585938 -17.179688 6.128906 -17.625 8.046875 -17.625 Z M 8.046875 -17.625 "/></g></g></g><g fill="#ffffff" fill-opacity="1"><g transform="translate(225.662954, 235.691308)"><g><path d="M 17.46875 0 L 14.53125 0 L 14.53125 -7.25 L 5.25 -7.25 L 5.25 0 L 2.296875 0 L 2.296875 -17.5 L 5.25 -17.5 L 5.25 -9.90625 L 14.53125 -9.90625 L 14.53125 -17.5 L 17.46875 -17.5 Z M 17.46875 0 "/></g></g></g><g fill="#ffffff" fill-opacity="1"><g transform="translate(247.309841, 235.691308)"><g><path d="M 5.25 0 L 2.296875 0 L 2.296875 -17.5 L 5.25 -17.5 Z M 5.25 0 "/></g></g></g><g fill="#ffffff" fill-opacity="1"><g transform="translate(256.733672, 235.691308)"><g><path d="M 2.296875 -17.5 L 9.28125 -17.5 C 11.476562 -17.5 13.179688 -16.976562 14.390625 -15.9375 C 15.597656 -14.894531 16.203125 -13.425781 16.203125 -11.53125 C 16.203125 -9.539062 15.597656 -8 14.390625 -6.90625 C 13.179688 -5.820312 11.476562 -5.28125 9.28125 -5.28125 L 5.25 -5.28125 L 5.25 0 L 2.296875 0 Z M 5.25 -14.84375 L 5.25 -7.921875 L 9.15625 -7.921875 C 11.96875 -7.921875 13.375 -9.097656 13.375 -11.453125 C 13.375 -13.710938 11.96875 -14.84375 9.15625 -14.84375 Z M 5.25 -14.84375 "/></g></g></g><g fill="#ffffff" fill-opacity="1"><g transform="translate(129.74841, 259.037018)"><g><path d="M 7.640625 -13.359375 C 8.578125 -13.359375 9.488281 -13.175781 10.375 -12.8125 C 11.269531 -12.457031 12.039062 -11.957031 12.6875 -11.3125 L 11.375 -9.671875 C 10.894531 -10.191406 10.328125 -10.601562 9.671875 -10.90625 C 9.015625 -11.207031 8.347656 -11.359375 7.671875 -11.359375 C 6.347656 -11.359375 5.222656 -10.90625 4.296875 -10 C 3.378906 -9.09375 2.921875 -7.988281 2.921875 -6.6875 C 2.921875 -5.375 3.378906 -4.265625 4.296875 -3.359375 C 5.222656 -2.453125 6.347656 -2 7.671875 -2 C 9.054688 -2 10.289062 -2.523438 11.375 -3.578125 L 12.71875 -2.09375 C 12.03125 -1.414062 11.226562 -0.878906 10.3125 -0.484375 C 9.40625 -0.0976562 8.488281 0.09375 7.5625 0.09375 C 5.613281 0.09375 3.972656 -0.550781 2.640625 -1.84375 C 1.304688 -3.144531 0.640625 -4.753906 0.640625 -6.671875 C 0.640625 -8.554688 1.3125 -10.140625 2.65625 -11.421875 C 4.007812 -12.710938 5.671875 -13.359375 7.640625 -13.359375 Z M 7.640625 -13.359375 "/></g></g></g><g fill="#ffffff" fill-opacity="1"><g transform="translate(144.546713, 259.037018)"><g><path d="M 2.671875 -11.421875 C 4.035156 -12.710938 5.707031 -13.359375 7.6875 -13.359375 C 9.675781 -13.359375 11.347656 -12.710938 12.703125 -11.421875 C 14.066406 -10.140625 14.75 -8.546875 14.75 -6.640625 C 14.75 -4.742188 14.066406 -3.144531 12.703125 -1.84375 C 11.347656 -0.550781 9.675781 0.09375 7.6875 0.09375 C 5.707031 0.09375 4.035156 -0.550781 2.671875 -1.84375 C 1.316406 -3.144531 0.640625 -4.742188 0.640625 -6.640625 C 0.640625 -8.546875 1.316406 -10.140625 2.671875 -11.421875 Z M 7.71875 -11.34375 C 6.394531 -11.34375 5.265625 -10.890625 4.328125 -9.984375 C 3.390625 -9.078125 2.921875 -7.960938 2.921875 -6.640625 C 2.921875 -5.328125 3.390625 -4.210938 4.328125 -3.296875 C 5.273438 -2.378906 6.398438 -1.921875 7.703125 -1.921875 C 9.015625 -1.921875 10.128906 -2.378906 11.046875 -3.296875 C 11.972656 -4.210938 12.4375 -5.328125 12.4375 -6.640625 C 12.4375 -7.960938 11.972656 -9.078125 11.046875 -9.984375 C 10.128906 -10.890625 9.019531 -11.34375 7.71875 -11.34375 Z M 7.71875 -11.34375 "/></g></g></g><g fill="#ffffff" fill-opacity="1"><g transform="translate(161.491572, 259.037018)"><g><path d="M 15.8125 0 L 13.734375 0 L 13.71875 -9.9375 L 9.515625 -1.390625 L 8.0625 -1.390625 L 3.859375 -9.9375 L 3.859375 0 L 1.75 0 L 1.75 -13.296875 L 4.40625 -13.296875 L 8.796875 -4.46875 L 13.171875 -13.296875 L 15.8125 -13.296875 Z M 15.8125 0 "/></g></g></g><g fill="#ffffff" fill-opacity="1"><g transform="translate(180.620982, 259.037018)"><g><path d="M 13.046875 -13.296875 L 13.046875 -5.515625 C 13.046875 -3.773438 12.53125 -2.40625 11.5 -1.40625 C 10.476562 -0.40625 9.066406 0.09375 7.265625 0.09375 C 5.472656 0.09375 4.0625 -0.40625 3.03125 -1.40625 C 2 -2.40625 1.484375 -3.773438 1.484375 -5.515625 L 1.484375 -13.296875 L 3.71875 -13.296875 L 3.71875 -5.515625 C 3.71875 -4.398438 4.035156 -3.519531 4.671875 -2.875 C 5.316406 -2.238281 6.191406 -1.921875 7.296875 -1.921875 C 8.390625 -1.921875 9.25 -2.234375 9.875 -2.859375 C 10.5 -3.492188 10.8125 -4.378906 10.8125 -5.515625 L 10.8125 -13.296875 Z M 13.046875 -13.296875 "/></g></g></g><g fill="#ffffff" fill-opacity="1"><g transform="translate(196.692016, 259.037018)"><g><path d="M 13.28125 0 L 11.078125 0 L 3.984375 -9.53125 L 3.984375 0 L 1.75 0 L 1.75 -13.296875 L 3.953125 -13.296875 L 11.078125 -3.75 L 11.078125 -13.296875 L 13.28125 -13.296875 Z M 13.28125 0 "/></g></g></g><g fill="#ffffff" fill-opacity="1"><g transform="translate(213.294949, 259.037018)"><g><path d="M 3.984375 0 L 1.75 0 L 1.75 -13.296875 L 3.984375 -13.296875 Z M 3.984375 0 "/></g></g></g><g fill="#ffffff" fill-opacity="1"><g transform="translate(220.589784, 259.037018)"><g><path d="M 10.828125 -11.28125 L 6.609375 -11.28125 L 6.609375 0 L 4.375 0 L 4.375 -11.28125 L 0.171875 -11.28125 L 0.171875 -13.296875 L 10.828125 -13.296875 Z M 10.828125 -11.28125 "/></g></g></g><g fill="#ffffff" fill-opacity="1"><g transform="translate(233.14655, 259.037018)"><g><path d="M 7.203125 -4.421875 L 7.203125 0 L 4.984375 0 L 4.984375 -4.34375 L 0.015625 -13.296875 L 2.28125 -13.296875 L 6.078125 -6.828125 L 9.796875 -13.296875 L 12.078125 -13.296875 Z M 7.203125 -4.421875 "/></g></g></g></svg>