<svg xmlns="http://www.w3.org/2000/svg" xmlns:xlink="http://www.w3.org/1999/xlink" width="500" zoomAndPan="magnify" viewBox="0 0 375 374.999991" height="500" preserveAspectRatio="xMidYMid meet" version="1.0"><defs><g/><clipPath id="037a7afcdb"><path d="M 201 82.761719 L 217 82.761719 L 217 99 L 201 99 Z M 201 82.761719 " clip-rule="nonzero"/></clipPath><clipPath id="33b439d5fe"><path d="M 158 82.761719 L 174 82.761719 L 174 99 L 158 99 Z M 158 82.761719 " clip-rule="nonzero"/></clipPath><clipPath id="1fd265ab0c"><path d="M 159 196 L 187 196 L 187 206.511719 L 159 206.511719 Z M 159 196 " clip-rule="nonzero"/></clipPath><clipPath id="6dc7413a6f"><path d="M 188 196 L 216 196 L 216 206.511719 L 188 206.511719 Z M 188 196 " clip-rule="nonzero"/></clipPath></defs><path fill="#007dff" d="M 190.164062 120.074219 C 192.378906 118.777344 193.261719 116.003906 192.152344 113.648438 C 189.886719 108.859375 182.683594 110.476562 182.683594 115.777344 C 182.683594 119.628906 186.855469 122.023438 190.164062 120.074219 " fill-opacity="1" fill-rule="nonzero"/><path fill="#007dff" d="M 199.089844 134.328125 L 197.496094 129.828125 C 195.921875 125.363281 195.582031 122.703125 192.628906 122.703125 L 191.1875 122.703125 L 191.1875 121.496094 C 189.171875 123.285156 186.15625 123.300781 184.121094 121.496094 L 184.121094 122.703125 C 179.46875 122.703125 180.25 122.945312 176.226562 134.328125 C 175.429688 136.578125 178.757812 137.855469 179.664062 135.65625 L 182.269531 129.351562 C 182.269531 146.410156 182.269531 121.570312 182.269531 152.152344 C 182.269531 154.539062 185.816406 154.652344 185.984375 152.28125 L 186.960938 137.945312 L 188.347656 137.945312 L 189.335938 152.28125 C 189.492188 154.652344 193.042969 154.539062 193.042969 152.152344 C 193.042969 121.78125 193.042969 140.785156 193.042969 129.351562 L 195.648438 135.65625 C 196.554688 137.855469 199.882812 136.578125 199.089844 134.328125 " fill-opacity="1" fill-rule="nonzero"/><g clip-path="url(#037a7afcdb)"><path fill="#007dff" d="M 209.269531 98.1875 C 213.457031 98.1875 216.847656 94.78125 216.847656 90.582031 C 216.847656 86.382812 213.457031 82.976562 209.269531 82.976562 C 205.082031 82.976562 201.683594 86.382812 201.683594 90.582031 C 201.683594 94.78125 205.082031 98.1875 209.269531 98.1875 " fill-opacity="1" fill-rule="nonzero"/></g><path fill="#007dff" d="M 228.359375 120.054688 L 224.042969 106.058594 C 223.152344 103.179688 220.496094 101.21875 217.480469 101.21875 L 201.050781 101.21875 C 198.042969 101.21875 195.386719 103.179688 194.488281 106.058594 L 192.378906 112.917969 C 194.074219 115.710938 192.996094 119.335938 190.050781 120.761719 C 190.042969 121.042969 190.074219 121.320312 190.148438 121.585938 C 190.667969 121.261719 191.25 120.703125 191.738281 120.273438 C 191.738281 120.476562 191.738281 121.941406 191.738281 122.152344 C 192.847656 122.152344 193.683594 122.09375 194.746094 122.789062 C 195.25 122.265625 200.53125 111.367188 200.847656 110.71875 L 197.691406 128.714844 L 199.613281 134.144531 C 200.335938 136.207031 198.15625 138.097656 196.230469 137.0625 L 195.996094 138.382812 L 201.050781 138.382812 L 201.050781 150.664062 C 201.050781 155.042969 207.332031 155.074219 207.46875 150.898438 L 207.875 138.382812 L 210.664062 138.382812 L 211.0625 150.898438 C 211.199219 155.089844 217.480469 154.984375 217.480469 150.792969 L 217.480469 138.382812 L 222.535156 138.382812 L 217.683594 110.71875 L 223.289062 122.085938 C 223.929688 123.367188 225.453125 123.949219 226.777344 123.40625 C 228.09375 122.863281 228.78125 121.414062 228.359375 120.054688 " fill-opacity="1" fill-rule="nonzero"/><g clip-path="url(#33b439d5fe)"><path fill="#007dff" d="M 166.050781 98.03125 C 170.191406 98.03125 173.554688 94.660156 173.554688 90.507812 C 173.554688 86.355469 170.191406 82.976562 166.050781 82.976562 C 161.898438 82.976562 158.539062 86.355469 158.539062 90.507812 C 158.539062 94.660156 161.898438 98.03125 166.050781 98.03125 " fill-opacity="1" fill-rule="nonzero"/></g><path fill="#007dff" d="M 179.753906 123.496094 C 180.734375 122.363281 181.847656 122.152344 183.160156 122.152344 C 183.285156 121.367188 183.339844 122.03125 178.617188 105.332031 C 177.878906 102.71875 175.496094 100.914062 172.785156 100.914062 L 159.308594 100.914062 C 156.59375 100.914062 154.214844 102.71875 153.476562 105.332031 L 148.992188 121.195312 C 148.21875 123.816406 152.105469 125.1875 153.101562 122.460938 L 157.914062 109.296875 C 157.914062 110.855469 157.914062 150.375 157.914062 151.09375 C 157.914062 152.597656 159.042969 153.910156 160.535156 154.007812 C 162.085938 154.109375 163.40625 152.921875 163.503906 151.390625 L 164.898438 129.765625 L 167.195312 129.765625 L 168.582031 151.289062 C 168.820312 155.027344 174.179688 154.78125 174.179688 151.207031 C 174.179688 147.296875 174.179688 113.277344 174.179688 109.296875 C 179.144531 122.878906 178.894531 122.839844 179.753906 123.496094 " fill-opacity="1" fill-rule="nonzero"/><path fill="#007dff" d="M 163.441406 193.984375 L 183.136719 193.984375 L 183.136719 182.203125 C 183.136719 171.046875 174.109375 162 162.984375 162 C 158.09375 162 156.738281 159.6875 147.351562 150.527344 C 145.769531 148.988281 144.203125 148.8125 142.3125 149.589844 C 140.773438 150.21875 141.671875 151.277344 150.3125 163.050781 C 149.582031 163.5625 148.578125 163.398438 148.050781 162.671875 L 139.613281 151.035156 C 139.019531 150.21875 139.269531 149.054688 140.15625 148.554688 C 142.222656 147.402344 141.792969 148.050781 141.226562 136.199219 C 140.964844 130.703125 136.21875 129.191406 136.125 130.007812 C 134.425781 145.730469 133.511719 148.804688 135.207031 153.441406 C 136.375 156.652344 139.011719 160.695312 140.691406 165.316406 C 143.148438 172.066406 147.515625 173.871094 157.023438 179.90625 C 161.015625 182.445312 163.441406 186.855469 163.441406 191.597656 L 163.441406 193.984375 " fill-opacity="1" fill-rule="nonzero"/><g clip-path="url(#1fd265ab0c)"><path fill="#007dff" d="M 179.625 199.875 C 179.625 197.132812 183.761719 197.132812 183.761719 199.875 C 183.761719 202.617188 179.625 202.617188 179.625 199.875 Z M 184.753906 196.621094 L 160.980469 196.621094 C 160.097656 196.621094 159.375 197.339844 159.375 198.230469 L 159.375 204.488281 C 159.375 205.375 160.097656 206.097656 160.980469 206.097656 L 184.753906 206.097656 C 185.644531 206.097656 186.359375 205.375 186.359375 204.488281 L 186.359375 198.230469 C 186.359375 197.339844 185.644531 196.621094 184.753906 196.621094 " fill-opacity="1" fill-rule="nonzero"/></g><path fill="#007dff" d="M 238.898438 130.007812 C 238.808594 129.191406 234.0625 130.703125 233.796875 136.199219 C 233.234375 148.042969 232.804688 147.402344 234.867188 148.554688 C 235.757812 149.054688 236.003906 150.21875 235.410156 151.035156 L 226.972656 162.671875 C 226.445312 163.398438 225.445312 163.5625 224.714844 163.050781 C 230.160156 155.632812 232.375 152.4375 233.203125 151.050781 C 233.503906 150.535156 233.324219 149.839844 232.714844 149.589844 C 230.824219 148.8125 229.253906 148.988281 227.671875 150.527344 C 218.671875 159.3125 217.035156 162 212.042969 162 C 200.914062 162 191.890625 171.046875 191.890625 182.203125 L 191.890625 193.984375 L 211.582031 193.984375 L 211.582031 191.597656 C 211.582031 176.855469 229.527344 178.539062 234.332031 165.316406 C 236.011719 160.695312 238.648438 156.652344 239.816406 153.441406 C 241.511719 148.804688 240.601562 145.730469 238.898438 130.007812 " fill-opacity="1" fill-rule="nonzero"/><g clip-path="url(#6dc7413a6f)"><path fill="#007dff" d="M 191.265625 199.875 C 191.265625 197.132812 195.398438 197.132812 195.398438 199.875 C 195.398438 202.617188 191.265625 202.617188 191.265625 199.875 Z M 214.046875 196.621094 L 190.269531 196.621094 C 189.382812 196.621094 188.664062 197.339844 188.664062 198.230469 L 188.664062 204.488281 C 188.664062 205.375 189.382812 206.097656 190.269531 206.097656 L 214.046875 206.097656 C 214.925781 206.097656 215.648438 205.375 215.648438 204.488281 L 215.648438 198.230469 C 215.648438 197.339844 214.925781 196.621094 214.046875 196.621094 " fill-opacity="1" fill-rule="nonzero"/></g><g fill="#272626" fill-opacity="1"><g transform="translate(71.914093, 254.239656)"><g><path d="M 2.140625 0 L 2.140625 -24.84375 L 19.1875 -24.84375 L 19.1875 -18.90625 L 8.953125 -18.90625 L 8.953125 -14.765625 L 17.296875 -14.765625 L 17.296875 -9.234375 L 8.953125 -9.234375 L 8.953125 0 Z M 2.140625 0 "/></g></g></g><g fill="#272626" fill-opacity="1"><g transform="translate(91.474677, 254.239656)"><g><path d="M -0.28125 0 L 9 -24.84375 L 14.53125 -24.84375 L 23.765625 0 L 16.5625 0 L 15.046875 -4.859375 L 8.4375 -4.859375 L 6.96875 0 Z M 11.765625 -17.75 L 9.453125 -9.421875 L 13.96875 -9.421875 Z M 11.765625 -17.75 "/></g></g></g><g fill="#272626" fill-opacity="1"><g transform="translate(114.95437, 254.239656)"><g><path d="M 20.9375 0 L 20.9375 -13.09375 L 16.765625 -3.890625 L 13.125 -3.890625 L 8.953125 -13.09375 L 8.953125 0 L 2.140625 0 L 2.140625 -24.84375 L 9.59375 -24.84375 L 14.9375 -13.15625 L 20.328125 -24.84375 L 27.75 -24.84375 L 27.75 0 Z M 20.9375 0 "/></g></g></g><g fill="#272626" fill-opacity="1"><g transform="translate(144.837615, 254.239656)"><g><path d="M 2.140625 0 L 2.140625 -24.84375 L 8.953125 -24.84375 L 8.953125 0 Z M 2.140625 0 "/></g></g></g><g fill="#272626" fill-opacity="1"><g transform="translate(155.930109, 254.239656)"><g><path d="M 2.140625 0 L 2.140625 -24.84375 L 8.953125 -24.84375 L 8.953125 -5.953125 L 20.234375 -5.953125 L 20.234375 0 Z M 2.140625 0 "/></g></g></g><g fill="#272626" fill-opacity="1"><g transform="translate(176.505463, 254.239656)"><g><path d="M 6.9375 -24.84375 L 11.375 -14.109375 L 15.921875 -24.84375 L 23.34375 -24.84375 L 14.765625 -8.21875 L 14.765625 0 L 7.984375 0 L 7.984375 -8.296875 L -0.453125 -24.84375 Z M 6.9375 -24.84375 "/></g></g></g><g fill="#272626" fill-opacity="1"><g transform="translate(199.320312, 254.239656)"><g/></g></g><g fill="#272626" fill-opacity="1"><g transform="translate(207.193538, 254.239656)"><g><path d="M 2.140625 0 L 2.140625 -24.84375 L 8.953125 -24.84375 L 8.953125 -5.953125 L 20.234375 -5.953125 L 20.234375 0 Z M 2.140625 0 "/></g></g></g><g fill="#272626" fill-opacity="1"><g transform="translate(227.768891, 254.239656)"><g><path d="M 12.671875 0.203125 C 10.898438 0.203125 9.285156 -0.15625 7.828125 -0.875 C 6.367188 -1.59375 5.117188 -2.539062 4.078125 -3.71875 C 3.035156 -4.90625 2.226562 -6.253906 1.65625 -7.765625 C 1.09375 -9.285156 0.8125 -10.847656 0.8125 -12.453125 C 0.8125 -14.085938 1.109375 -15.660156 1.703125 -17.171875 C 2.296875 -18.691406 3.128906 -20.03125 4.203125 -21.1875 C 5.273438 -22.34375 6.539062 -23.265625 8 -23.953125 C 9.457031 -24.640625 11.0625 -24.984375 12.8125 -24.984375 C 14.582031 -24.984375 16.195312 -24.617188 17.65625 -23.890625 C 19.113281 -23.171875 20.359375 -22.21875 21.390625 -21.03125 C 22.429688 -19.84375 23.234375 -18.488281 23.796875 -16.96875 C 24.359375 -15.457031 24.640625 -13.90625 24.640625 -12.3125 C 24.640625 -10.6875 24.34375 -9.117188 23.75 -7.609375 C 23.15625 -6.109375 22.332031 -4.78125 21.28125 -3.625 C 20.226562 -2.46875 18.96875 -1.539062 17.5 -0.84375 C 16.03125 -0.144531 14.421875 0.203125 12.671875 0.203125 Z M 7.734375 -12.390625 C 7.734375 -11.546875 7.832031 -10.734375 8.03125 -9.953125 C 8.226562 -9.171875 8.535156 -8.476562 8.953125 -7.875 C 9.378906 -7.269531 9.90625 -6.78125 10.53125 -6.40625 C 11.164062 -6.03125 11.898438 -5.84375 12.734375 -5.84375 C 13.597656 -5.84375 14.34375 -6.035156 14.96875 -6.421875 C 15.601562 -6.804688 16.117188 -7.304688 16.515625 -7.921875 C 16.910156 -8.546875 17.207031 -9.253906 17.40625 -10.046875 C 17.601562 -10.835938 17.703125 -11.640625 17.703125 -12.453125 C 17.703125 -13.296875 17.597656 -14.109375 17.390625 -14.890625 C 17.179688 -15.671875 16.875 -16.359375 16.46875 -16.953125 C 16.0625 -17.546875 15.539062 -18.023438 14.90625 -18.390625 C 14.28125 -18.753906 13.546875 -18.9375 12.703125 -18.9375 C 11.835938 -18.9375 11.097656 -18.75 10.484375 -18.375 C 9.867188 -18 9.351562 -17.5 8.9375 -16.875 C 8.53125 -16.257812 8.226562 -15.5625 8.03125 -14.78125 C 7.832031 -14 7.734375 -13.203125 7.734375 -12.390625 Z M 7.734375 -12.390625 "/></g></g></g><g fill="#272626" fill-opacity="1"><g transform="translate(253.208144, 254.239656)"><g><path d="M -0.28125 0 L 9 -24.84375 L 14.53125 -24.84375 L 23.765625 0 L 16.5625 0 L 15.046875 -4.859375 L 8.4375 -4.859375 L 6.96875 0 Z M 11.765625 -17.75 L 9.453125 -9.421875 L 13.96875 -9.421875 Z M 11.765625 -17.75 "/></g></g></g><g fill="#272626" fill-opacity="1"><g transform="translate(276.687837, 254.239656)"><g><path d="M 8.953125 -12.21875 L 8.953125 0 L 2.140625 0 L 2.140625 -24.84375 L 7.453125 -24.84375 L 17.4375 -12.21875 L 17.4375 -24.84375 L 24.25 -24.84375 L 24.25 0 L 18.828125 0 Z M 8.953125 -12.21875 "/></g></g></g><g fill="#272626" fill-opacity="1"><g transform="translate(112.031248, 285.739668)"><g><path d="M 1.84375 0 L 1.84375 -17.75 L 5.296875 -17.75 L 5.296875 0 Z M 1.84375 0 "/></g></g></g><g fill="#272626" fill-opacity="1"><g transform="translate(119.18012, 285.739668)"><g><path d="M 5.296875 -11.375 L 5.296875 0 L 1.84375 0 L 1.84375 -17.75 L 4.53125 -17.75 L 13.78125 -6.09375 L 13.78125 -17.71875 L 17.21875 -17.71875 L 17.21875 0 L 14.421875 0 Z M 5.296875 -11.375 "/></g></g></g><g fill="#272626" fill-opacity="1"><g transform="translate(138.252098, 285.739668)"><g><path d="M 12.421875 -13.09375 C 12.304688 -13.21875 12.09375 -13.378906 11.78125 -13.578125 C 11.476562 -13.773438 11.101562 -13.96875 10.65625 -14.15625 C 10.21875 -14.351562 9.738281 -14.515625 9.21875 -14.640625 C 8.707031 -14.773438 8.1875 -14.84375 7.65625 -14.84375 C 6.695312 -14.84375 5.984375 -14.664062 5.515625 -14.3125 C 5.054688 -13.96875 4.828125 -13.476562 4.828125 -12.84375 C 4.828125 -12.476562 4.910156 -12.175781 5.078125 -11.9375 C 5.253906 -11.695312 5.507812 -11.484375 5.84375 -11.296875 C 6.175781 -11.117188 6.597656 -10.953125 7.109375 -10.796875 C 7.617188 -10.648438 8.207031 -10.492188 8.875 -10.328125 C 9.738281 -10.085938 10.523438 -9.832031 11.234375 -9.5625 C 11.941406 -9.300781 12.539062 -8.96875 13.03125 -8.5625 C 13.53125 -8.164062 13.910156 -7.6875 14.171875 -7.125 C 14.441406 -6.570312 14.578125 -5.890625 14.578125 -5.078125 C 14.578125 -4.128906 14.394531 -3.316406 14.03125 -2.640625 C 13.675781 -1.960938 13.191406 -1.414062 12.578125 -1 C 11.972656 -0.582031 11.273438 -0.273438 10.484375 -0.078125 C 9.691406 0.109375 8.863281 0.203125 8 0.203125 C 6.664062 0.203125 5.347656 0.00390625 4.046875 -0.390625 C 2.742188 -0.796875 1.578125 -1.363281 0.546875 -2.09375 L 2.078125 -5.078125 C 2.222656 -4.921875 2.488281 -4.722656 2.875 -4.484375 C 3.269531 -4.242188 3.734375 -4.003906 4.265625 -3.765625 C 4.804688 -3.523438 5.398438 -3.320312 6.046875 -3.15625 C 6.703125 -2.988281 7.367188 -2.90625 8.046875 -2.90625 C 9.953125 -2.90625 10.90625 -3.507812 10.90625 -4.71875 C 10.90625 -5.101562 10.796875 -5.425781 10.578125 -5.6875 C 10.359375 -5.957031 10.046875 -6.191406 9.640625 -6.390625 C 9.242188 -6.597656 8.757812 -6.785156 8.1875 -6.953125 C 7.625 -7.117188 6.992188 -7.300781 6.296875 -7.5 C 5.453125 -7.726562 4.71875 -7.976562 4.09375 -8.25 C 3.46875 -8.53125 2.945312 -8.859375 2.53125 -9.234375 C 2.113281 -9.609375 1.800781 -10.039062 1.59375 -10.53125 C 1.382812 -11.03125 1.28125 -11.617188 1.28125 -12.296875 C 1.28125 -13.203125 1.445312 -14.003906 1.78125 -14.703125 C 2.113281 -15.398438 2.570312 -15.984375 3.15625 -16.453125 C 3.75 -16.921875 4.4375 -17.273438 5.21875 -17.515625 C 6.007812 -17.753906 6.851562 -17.875 7.75 -17.875 C 9 -17.875 10.148438 -17.675781 11.203125 -17.28125 C 12.253906 -16.894531 13.171875 -16.4375 13.953125 -15.90625 Z M 12.421875 -13.09375 "/></g></g></g><g fill="#272626" fill-opacity="1"><g transform="translate(153.574671, 285.739668)"><g><path d="M 9.34375 -2.921875 C 10.164062 -2.921875 10.851562 -3.085938 11.40625 -3.421875 C 11.96875 -3.753906 12.421875 -4.1875 12.765625 -4.71875 C 13.109375 -5.257812 13.347656 -5.875 13.484375 -6.5625 C 13.628906 -7.25 13.703125 -7.960938 13.703125 -8.703125 L 13.703125 -17.75 L 17.125 -17.75 L 17.125 -8.703125 C 17.125 -7.484375 16.976562 -6.335938 16.6875 -5.265625 C 16.394531 -4.203125 15.9375 -3.269531 15.3125 -2.46875 C 14.6875 -1.675781 13.878906 -1.046875 12.890625 -0.578125 C 11.910156 -0.109375 10.738281 0.125 9.375 0.125 C 7.957031 0.125 6.753906 -0.117188 5.765625 -0.609375 C 4.773438 -1.097656 3.96875 -1.75 3.34375 -2.5625 C 2.726562 -3.375 2.28125 -4.3125 2 -5.375 C 1.726562 -6.4375 1.59375 -7.546875 1.59375 -8.703125 L 1.59375 -17.75 L 5.046875 -17.75 L 5.046875 -8.703125 C 5.046875 -7.953125 5.113281 -7.226562 5.25 -6.53125 C 5.394531 -5.84375 5.640625 -5.234375 5.984375 -4.703125 C 6.328125 -4.171875 6.773438 -3.738281 7.328125 -3.40625 C 7.878906 -3.082031 8.550781 -2.921875 9.34375 -2.921875 Z M 9.34375 -2.921875 "/></g></g></g><g fill="#272626" fill-opacity="1"><g transform="translate(172.321706, 285.739668)"><g><path d="M 1.84375 0 L 1.84375 -17.75 L 9.703125 -17.75 C 10.515625 -17.75 11.265625 -17.578125 11.953125 -17.234375 C 12.648438 -16.890625 13.25 -16.4375 13.75 -15.875 C 14.25 -15.320312 14.640625 -14.691406 14.921875 -13.984375 C 15.203125 -13.273438 15.34375 -12.5625 15.34375 -11.84375 C 15.34375 -10.695312 15.054688 -9.648438 14.484375 -8.703125 C 13.910156 -7.765625 13.132812 -7.085938 12.15625 -6.671875 L 16.203125 0 L 12.328125 0 L 8.703125 -5.953125 L 5.296875 -5.953125 L 5.296875 0 Z M 5.296875 -8.96875 L 9.625 -8.96875 C 9.9375 -8.96875 10.226562 -9.039062 10.5 -9.1875 C 10.78125 -9.34375 11.019531 -9.550781 11.21875 -9.8125 C 11.425781 -10.070312 11.585938 -10.375 11.703125 -10.71875 C 11.816406 -11.070312 11.875 -11.445312 11.875 -11.84375 C 11.875 -12.257812 11.804688 -12.644531 11.671875 -13 C 11.535156 -13.351562 11.351562 -13.65625 11.125 -13.90625 C 10.90625 -14.164062 10.648438 -14.363281 10.359375 -14.5 C 10.066406 -14.644531 9.769531 -14.71875 9.46875 -14.71875 L 5.296875 -14.71875 Z M 5.296875 -8.96875 "/></g></g></g><g fill="#272626" fill-opacity="1"><g transform="translate(188.944076, 285.739668)"><g><path d="M 6.90625 -17.75 L 9.953125 -17.75 L 16.703125 0 L 13.15625 0 L 11.5 -4.421875 L 5.296875 -4.421875 L 3.671875 0 L 0.125 0 Z M 10.875 -6.84375 L 8.421875 -13.828125 L 5.875 -6.84375 Z M 10.875 -6.84375 "/></g></g></g><g fill="#272626" fill-opacity="1"><g transform="translate(205.741416, 285.739668)"><g><path d="M 5.296875 -11.375 L 5.296875 0 L 1.84375 0 L 1.84375 -17.75 L 4.53125 -17.75 L 13.78125 -6.09375 L 13.78125 -17.71875 L 17.21875 -17.71875 L 17.21875 0 L 14.421875 0 Z M 5.296875 -11.375 "/></g></g></g><g fill="#272626" fill-opacity="1"><g transform="translate(224.813394, 285.739668)"><g><path d="M 0.78125 -9 C 0.78125 -10.082031 0.972656 -11.148438 1.359375 -12.203125 C 1.753906 -13.265625 2.328125 -14.210938 3.078125 -15.046875 C 3.828125 -15.878906 4.742188 -16.550781 5.828125 -17.0625 C 6.910156 -17.582031 8.144531 -17.84375 9.53125 -17.84375 C 11.15625 -17.84375 12.5625 -17.484375 13.75 -16.765625 C 14.945312 -16.054688 15.835938 -15.125 16.421875 -13.96875 L 13.78125 -12.15625 C 13.539062 -12.65625 13.253906 -13.070312 12.921875 -13.40625 C 12.585938 -13.75 12.226562 -14.019531 11.84375 -14.21875 C 11.46875 -14.425781 11.070312 -14.570312 10.65625 -14.65625 C 10.238281 -14.75 9.828125 -14.796875 9.421875 -14.796875 C 8.554688 -14.796875 7.800781 -14.617188 7.15625 -14.265625 C 6.519531 -13.921875 5.988281 -13.46875 5.5625 -12.90625 C 5.132812 -12.351562 4.8125 -11.722656 4.59375 -11.015625 C 4.382812 -10.304688 4.28125 -9.601562 4.28125 -8.90625 C 4.28125 -8.113281 4.40625 -7.351562 4.65625 -6.625 C 4.90625 -5.90625 5.257812 -5.269531 5.71875 -4.71875 C 6.175781 -4.175781 6.722656 -3.738281 7.359375 -3.40625 C 8.003906 -3.070312 8.707031 -2.90625 9.46875 -2.90625 C 9.875 -2.90625 10.289062 -2.953125 10.71875 -3.046875 C 11.15625 -3.148438 11.566406 -3.304688 11.953125 -3.515625 C 12.347656 -3.734375 12.710938 -4.015625 13.046875 -4.359375 C 13.378906 -4.703125 13.644531 -5.113281 13.84375 -5.59375 L 16.671875 -3.96875 C 16.390625 -3.300781 15.984375 -2.710938 15.453125 -2.203125 C 14.929688 -1.703125 14.34375 -1.273438 13.6875 -0.921875 C 13.03125 -0.578125 12.328125 -0.3125 11.578125 -0.125 C 10.828125 0.0625 10.09375 0.15625 9.375 0.15625 C 8.101562 0.15625 6.941406 -0.109375 5.890625 -0.640625 C 4.847656 -1.179688 3.945312 -1.878906 3.1875 -2.734375 C 2.425781 -3.597656 1.832031 -4.570312 1.40625 -5.65625 C 0.988281 -6.75 0.78125 -7.863281 0.78125 -9 Z M 0.78125 -9 "/></g></g></g><g fill="#272626" fill-opacity="1"><g transform="translate(241.960682, 285.739668)"><g><path d="M 14.171875 -3.03125 L 14.171875 0 L 1.84375 0 L 1.84375 -17.75 L 13.953125 -17.75 L 13.953125 -14.71875 L 5.296875 -14.71875 L 5.296875 -10.453125 L 12.78125 -10.453125 L 12.78125 -7.65625 L 5.296875 -7.65625 L 5.296875 -3.03125 Z M 14.171875 -3.03125 "/></g></g></g><g fill="#272626" fill-opacity="1"><g transform="translate(256.980457, 285.739668)"><g/></g></g></svg>