<svg xmlns="http://www.w3.org/2000/svg" xmlns:xlink="http://www.w3.org/1999/xlink" width="500" zoomAndPan="magnify" viewBox="0 0 375 374.999991" height="500" preserveAspectRatio="xMidYMid meet" version="1.0"><defs><g/><clipPath id="19c2e1d4f3"><path d="M 137.613281 116.558594 L 237.363281 116.558594 L 237.363281 208.058594 L 137.613281 208.058594 Z M 137.613281 116.558594 " clip-rule="nonzero"/></clipPath><clipPath id="16ccbdda92"><path d="M 137.613281 148.390625 L 137.613281 116.566406 L 161.550781 116.566406 L 161.550781 172.261719 Z M 137.613281 168.296875 L 137.613281 152.382812 L 161.550781 176.253906 L 161.550781 192.167969 Z M 137.613281 184.210938 L 137.613281 180.222656 L 161.550781 204.09375 L 161.550781 208.058594 Z M 213.429688 196.132812 L 213.429688 168.296875 L 161.550781 168.296875 L 185.492188 144.398438 L 213.433594 144.398438 L 213.433594 116.566406 L 237.371094 116.566406 L 237.371094 196.132812 Z M 213.429688 196.132812 " clip-rule="nonzero"/></clipPath><linearGradient x1="-0.0000281733" gradientTransform="matrix(0.210621, 0, 0, 0.210025, 137.613282, 116.564757)" y1="217.81" x2="473.59999" gradientUnits="userSpaceOnUse" y2="217.81" id="82f6490fbd"><stop stop-opacity="1" stop-color="rgb(69.799805%, 50.19989%, 17.599487%)" offset="0"/><stop stop-opacity="1" stop-color="rgb(69.799805%, 50.19989%, 17.599487%)" offset="0.125"/><stop stop-opacity="1" stop-color="rgb(69.799805%, 50.19989%, 17.599487%)" offset="0.1875"/><stop stop-opacity="1" stop-color="rgb(69.799805%, 50.19989%, 17.599487%)" offset="0.21875"/><stop stop-opacity="1" stop-color="rgb(70.013428%, 50.494385%, 17.895508%)" offset="0.222656"/><stop stop-opacity="1" stop-color="rgb(70.227051%, 50.790405%, 18.191528%)" offset="0.226562"/><stop stop-opacity="1" stop-color="rgb(70.527649%, 51.205444%, 18.608093%)" offset="0.230469"/><stop stop-opacity="1" stop-color="rgb(70.829773%, 51.622009%, 19.026184%)" offset="0.234375"/><stop stop-opacity="1" stop-color="rgb(71.130371%, 52.037048%, 19.442749%)" offset="0.238281"/><stop stop-opacity="1" stop-color="rgb(71.432495%, 52.452087%, 19.86084%)" offset="0.242188"/><stop stop-opacity="1" stop-color="rgb(71.733093%, 52.867126%, 20.277405%)" offset="0.246094"/><stop stop-opacity="1" stop-color="rgb(72.035217%, 53.283691%, 20.69397%)" offset="0.25"/><stop stop-opacity="1" stop-color="rgb(72.335815%, 53.69873%, 21.110535%)" offset="0.253906"/><stop stop-opacity="1" stop-color="rgb(72.637939%, 54.115295%, 21.528625%)" offset="0.257812"/><stop stop-opacity="1" stop-color="rgb(72.938538%, 54.530334%, 21.94519%)" offset="0.261719"/><stop stop-opacity="1" stop-color="rgb(73.240662%, 54.946899%, 22.363281%)" offset="0.265625"/><stop stop-opacity="1" stop-color="rgb(73.54126%, 55.361938%, 22.779846%)" offset="0.269531"/><stop stop-opacity="1" stop-color="rgb(73.843384%, 55.778503%, 23.197937%)" offset="0.273438"/><stop stop-opacity="1" stop-color="rgb(74.143982%, 56.193542%, 23.614502%)" offset="0.277344"/><stop stop-opacity="1" stop-color="rgb(74.446106%, 56.610107%, 24.031067%)" offset="0.28125"/><stop stop-opacity="1" stop-color="rgb(74.746704%, 57.025146%, 24.447632%)" offset="0.285156"/><stop stop-opacity="1" stop-color="rgb(75.048828%, 57.441711%, 24.865723%)" offset="0.289062"/><stop stop-opacity="1" stop-color="rgb(75.349426%, 57.85675%, 25.282288%)" offset="0.292969"/><stop stop-opacity="1" stop-color="rgb(75.65155%, 58.273315%, 25.700378%)" offset="0.296875"/><stop stop-opacity="1" stop-color="rgb(75.952148%, 58.688354%, 26.116943%)" offset="0.300781"/><stop stop-opacity="1" stop-color="rgb(76.254272%, 59.104919%, 26.533508%)" offset="0.304688"/><stop stop-opacity="1" stop-color="rgb(76.554871%, 59.519958%, 26.950073%)" offset="0.308594"/><stop stop-opacity="1" stop-color="rgb(76.856995%, 59.934998%, 27.368164%)" offset="0.3125"/><stop stop-opacity="1" stop-color="rgb(77.157593%, 60.350037%, 27.784729%)" offset="0.316406"/><stop stop-opacity="1" stop-color="rgb(77.459717%, 60.766602%, 28.20282%)" offset="0.320312"/><stop stop-opacity="1" stop-color="rgb(77.760315%, 61.181641%, 28.619385%)" offset="0.324219"/><stop stop-opacity="1" stop-color="rgb(78.062439%, 61.598206%, 29.037476%)" offset="0.328125"/><stop stop-opacity="1" stop-color="rgb(78.363037%, 62.013245%, 29.454041%)" offset="0.332031"/><stop stop-opacity="1" stop-color="rgb(78.665161%, 62.42981%, 29.870605%)" offset="0.335937"/><stop stop-opacity="1" stop-color="rgb(78.965759%, 62.844849%, 30.28717%)" offset="0.339844"/><stop stop-opacity="1" stop-color="rgb(79.266357%, 63.261414%, 30.705261%)" offset="0.34375"/><stop stop-opacity="1" stop-color="rgb(79.566956%, 63.676453%, 31.121826%)" offset="0.347656"/><stop stop-opacity="1" stop-color="rgb(79.86908%, 64.093018%, 31.539917%)" offset="0.351562"/><stop stop-opacity="1" stop-color="rgb(80.169678%, 64.508057%, 31.956482%)" offset="0.355469"/><stop stop-opacity="1" stop-color="rgb(80.471802%, 64.924622%, 32.373047%)" offset="0.359375"/><stop stop-opacity="1" stop-color="rgb(80.7724%, 65.339661%, 32.789612%)" offset="0.363281"/><stop stop-opacity="1" stop-color="rgb(81.074524%, 65.756226%, 33.207703%)" offset="0.367188"/><stop stop-opacity="1" stop-color="rgb(81.375122%, 66.171265%, 33.624268%)" offset="0.371094"/><stop stop-opacity="1" stop-color="rgb(81.677246%, 66.586304%, 34.042358%)" offset="0.375"/><stop stop-opacity="1" stop-color="rgb(81.977844%, 67.001343%, 34.458923%)" offset="0.378906"/><stop stop-opacity="1" stop-color="rgb(82.279968%, 67.417908%, 34.877014%)" offset="0.382812"/><stop stop-opacity="1" stop-color="rgb(82.580566%, 67.832947%, 35.293579%)" offset="0.386719"/><stop stop-opacity="1" stop-color="rgb(82.88269%, 68.249512%, 35.710144%)" offset="0.390625"/><stop stop-opacity="1" stop-color="rgb(83.183289%, 68.664551%, 36.126709%)" offset="0.394531"/><stop stop-opacity="1" stop-color="rgb(83.485413%, 69.081116%, 36.5448%)" offset="0.398438"/><stop stop-opacity="1" stop-color="rgb(83.786011%, 69.496155%, 36.961365%)" offset="0.402344"/><stop stop-opacity="1" stop-color="rgb(84.088135%, 69.91272%, 37.379456%)" offset="0.40625"/><stop stop-opacity="1" stop-color="rgb(84.388733%, 70.327759%, 37.796021%)" offset="0.410156"/><stop stop-opacity="1" stop-color="rgb(84.690857%, 70.744324%, 38.212585%)" offset="0.414062"/><stop stop-opacity="1" stop-color="rgb(84.991455%, 71.159363%, 38.62915%)" offset="0.417969"/><stop stop-opacity="1" stop-color="rgb(85.293579%, 71.575928%, 39.047241%)" offset="0.421875"/><stop stop-opacity="1" stop-color="rgb(85.594177%, 71.990967%, 39.463806%)" offset="0.425781"/><stop stop-opacity="1" stop-color="rgb(85.896301%, 72.407532%, 39.881897%)" offset="0.429688"/><stop stop-opacity="1" stop-color="rgb(86.196899%, 72.822571%, 40.298462%)" offset="0.433594"/><stop stop-opacity="1" stop-color="rgb(86.499023%, 73.239136%, 40.715027%)" offset="0.4375"/><stop stop-opacity="1" stop-color="rgb(86.799622%, 73.654175%, 41.131592%)" offset="0.441406"/><stop stop-opacity="1" stop-color="rgb(87.101746%, 74.069214%, 41.549683%)" offset="0.445312"/><stop stop-opacity="1" stop-color="rgb(87.402344%, 74.484253%, 41.966248%)" offset="0.449219"/><stop stop-opacity="1" stop-color="rgb(87.704468%, 74.900818%, 42.384338%)" offset="0.453125"/><stop stop-opacity="1" stop-color="rgb(88.005066%, 75.315857%, 42.800903%)" offset="0.457031"/><stop stop-opacity="1" stop-color="rgb(88.30719%, 75.732422%, 43.218994%)" offset="0.460938"/><stop stop-opacity="1" stop-color="rgb(88.607788%, 76.147461%, 43.635559%)" offset="0.464844"/><stop stop-opacity="1" stop-color="rgb(88.909912%, 76.564026%, 44.052124%)" offset="0.46875"/><stop stop-opacity="1" stop-color="rgb(89.21051%, 76.979065%, 44.468689%)" offset="0.472656"/><stop stop-opacity="1" stop-color="rgb(89.512634%, 77.39563%, 44.88678%)" offset="0.476563"/><stop stop-opacity="1" stop-color="rgb(89.813232%, 77.810669%, 45.303345%)" offset="0.480469"/><stop stop-opacity="1" stop-color="rgb(90.115356%, 78.227234%, 45.721436%)" offset="0.484375"/><stop stop-opacity="1" stop-color="rgb(90.415955%, 78.642273%, 46.138%)" offset="0.488281"/><stop stop-opacity="1" stop-color="rgb(90.718079%, 79.058838%, 46.554565%)" offset="0.492188"/><stop stop-opacity="1" stop-color="rgb(91.018677%, 79.473877%, 46.97113%)" offset="0.496094"/><stop stop-opacity="1" stop-color="rgb(91.319275%, 79.890442%, 47.389221%)" offset="0.5"/><stop stop-opacity="1" stop-color="rgb(91.358948%, 79.943848%, 47.444153%)" offset="1"/></linearGradient></defs><g clip-path="url(#19c2e1d4f3)"><g clip-path="url(#16ccbdda92)"><path fill="url(#82f6490fbd)" d="M 137.613281 116.566406 L 137.613281 208.058594 L 237.363281 208.058594 L 237.363281 116.566406 Z M 137.613281 116.566406 " fill-rule="nonzero"/></g></g><g fill="#f4f6fc" fill-opacity="1"><g transform="translate(113.058751, 242.484843)"><g><path d="M 13.234375 -17.90625 L 16.859375 -17.90625 L 16.859375 0 L 13.234375 0 L 13.234375 -7.671875 L 5.546875 -7.671875 L 5.546875 0 L 1.921875 0 L 1.921875 -17.90625 L 5.546875 -17.90625 L 5.546875 -10.4375 L 13.234375 -10.4375 Z M 13.234375 -17.90625 "/></g></g></g><g fill="#f4f6fc" fill-opacity="1"><g transform="translate(135.80459, 242.484843)"><g><path d="M 13.671875 0 L 12.515625 -3.359375 L 5.546875 -3.359375 L 4.390625 0 L 0.5625 0 L 6.90625 -17.953125 L 11.1875 -17.953125 L 17.5 0 Z M 6.484375 -6.125 L 11.59375 -6.125 L 9.03125 -13.59375 Z M 6.484375 -6.125 "/></g></g></g><g fill="#f4f6fc" fill-opacity="1"><g transform="translate(157.858141, 242.484843)"><g><path d="M 13.65625 -17.953125 L 17.265625 -17.953125 L 17.265625 0 L 13.65625 0 L 5.546875 -12.421875 L 5.546875 0 L 1.921875 0 L 1.921875 -17.953125 L 5.546875 -17.953125 L 13.65625 -5.546875 Z M 13.65625 -17.953125 "/></g></g></g><g fill="#f4f6fc" fill-opacity="1"><g transform="translate(181.014238, 242.484843)"><g><path d="M 14.03125 -4.734375 C 15.039062 -5.804688 15.546875 -7.226562 15.546875 -9 C 15.546875 -10.78125 15.039062 -12.203125 14.03125 -13.265625 C 13.019531 -14.328125 11.703125 -14.859375 10.078125 -14.859375 C 8.453125 -14.859375 7.128906 -14.320312 6.109375 -13.25 C 5.097656 -12.175781 4.59375 -10.753906 4.59375 -8.984375 C 4.59375 -7.222656 5.097656 -5.804688 6.109375 -4.734375 C 7.128906 -3.660156 8.453125 -3.125 10.078125 -3.125 C 11.703125 -3.125 13.019531 -3.660156 14.03125 -4.734375 Z M 10.078125 0.171875 C 7.492188 0.171875 5.320312 -0.6875 3.5625 -2.40625 C 1.800781 -4.132812 0.921875 -6.328125 0.921875 -8.984375 C 0.921875 -11.648438 1.804688 -13.847656 3.578125 -15.578125 C 5.347656 -17.304688 7.519531 -18.171875 10.09375 -18.171875 C 12.664062 -18.171875 14.832031 -17.304688 16.59375 -15.578125 C 18.351562 -13.847656 19.234375 -11.648438 19.234375 -8.984375 C 19.234375 -6.328125 18.351562 -4.132812 16.59375 -2.40625 C 14.832031 -0.6875 12.660156 0.171875 10.078125 0.171875 Z M 10.078125 0.171875 "/></g></g></g><g fill="#f4f6fc" fill-opacity="1"><g transform="translate(205.144676, 242.484843)"><g><path d="M 6.90625 0 L 0.359375 -17.90625 L 4.1875 -17.90625 L 9.078125 -3.625 L 13.984375 -17.90625 L 17.828125 -17.90625 L 11.265625 0 Z M 6.90625 0 "/></g></g></g><g fill="#f4f6fc" fill-opacity="1"><g transform="translate(227.300786, 242.484843)"><g><path d="M 12.265625 -17.953125 L 12.265625 -15.1875 L 5.546875 -15.1875 L 5.546875 -10.5 L 11.5 -10.5 L 11.5 -7.71875 L 5.546875 -7.71875 L 5.546875 -2.765625 L 12.265625 -2.765625 L 12.265625 0 L 1.921875 0 L 1.921875 -17.953125 Z M 12.265625 -17.953125 "/></g></g></g><g fill="#f4f6fc" fill-opacity="1"><g transform="translate(245.303108, 242.484843)"><g><path d="M 5.546875 -7.125 L 5.546875 0 L 1.921875 0 L 1.921875 -17.90625 L 8.515625 -17.90625 C 10.585938 -17.90625 12.179688 -17.382812 13.296875 -16.34375 C 14.421875 -15.3125 14.984375 -14.035156 14.984375 -12.515625 C 14.984375 -11.390625 14.640625 -10.335938 13.953125 -9.359375 C 13.273438 -8.390625 12.195312 -7.722656 10.71875 -7.359375 L 15.296875 0 L 11 0 L 6.71875 -7.125 Z M 5.546875 -15.140625 L 5.546875 -9.90625 L 8.515625 -9.90625 C 9.421875 -9.90625 10.113281 -10.140625 10.59375 -10.609375 C 11.070312 -11.078125 11.3125 -11.710938 11.3125 -12.515625 C 11.3125 -13.316406 11.070312 -13.953125 10.59375 -14.421875 C 10.113281 -14.898438 9.421875 -15.140625 8.515625 -15.140625 Z M 5.546875 -15.140625 "/></g></g></g><g fill="#f4f6fc" fill-opacity="1"><g transform="translate(160.395308, 261.07302)"><g><path d="M 0.84375 -7.8125 L 1.640625 -7.8125 L 1.640625 -0.609375 L 4.484375 -0.609375 L 4.484375 0 L 0.84375 0 Z M 0.84375 -7.8125 "/></g></g></g><g fill="#f4f6fc" fill-opacity="1"><g transform="translate(168.074668, 261.07302)"><g><path d="M 0.84375 -2.625 L 0.84375 -7.8125 L 1.640625 -7.8125 L 1.640625 -2.625 C 1.640625 -1.925781 1.828125 -1.410156 2.203125 -1.078125 C 2.578125 -0.742188 3.085938 -0.578125 3.734375 -0.578125 C 4.378906 -0.578125 4.882812 -0.742188 5.25 -1.078125 C 5.625 -1.410156 5.8125 -1.925781 5.8125 -2.625 L 5.8125 -7.8125 L 6.609375 -7.8125 L 6.609375 -2.625 C 6.609375 -1.738281 6.335938 -1.066406 5.796875 -0.609375 C 5.265625 -0.148438 4.578125 0.078125 3.734375 0.078125 C 2.890625 0.078125 2.195312 -0.148438 1.65625 -0.609375 C 1.113281 -1.066406 0.84375 -1.738281 0.84375 -2.625 Z M 0.84375 -2.625 "/></g></g></g><g fill="#f4f6fc" fill-opacity="1"><g transform="translate(178.490699, 261.07302)"><g><path d="M 6.234375 -7.8125 L 3.828125 -3.90625 L 6.234375 0 L 5.375 0 L 3.34375 -3.296875 L 1.421875 0 L 0.5625 0 L 2.96875 -3.90625 L 0.5625 -7.8125 L 1.421875 -7.8125 L 3.46875 -4.5 L 5.375 -7.8125 Z M 6.234375 -7.8125 "/></g></g></g><g fill="#f4f6fc" fill-opacity="1"><g transform="translate(188.262142, 261.07302)"><g><path d="M 0.84375 -2.625 L 0.84375 -7.8125 L 1.640625 -7.8125 L 1.640625 -2.625 C 1.640625 -1.925781 1.828125 -1.410156 2.203125 -1.078125 C 2.578125 -0.742188 3.085938 -0.578125 3.734375 -0.578125 C 4.378906 -0.578125 4.882812 -0.742188 5.25 -1.078125 C 5.625 -1.410156 5.8125 -1.925781 5.8125 -2.625 L 5.8125 -7.8125 L 6.609375 -7.8125 L 6.609375 -2.625 C 6.609375 -1.738281 6.335938 -1.066406 5.796875 -0.609375 C 5.265625 -0.148438 4.578125 0.078125 3.734375 0.078125 C 2.890625 0.078125 2.195312 -0.148438 1.65625 -0.609375 C 1.113281 -1.066406 0.84375 -1.738281 0.84375 -2.625 Z M 0.84375 -2.625 "/></g></g></g><g fill="#f4f6fc" fill-opacity="1"><g transform="translate(198.678173, 261.07302)"><g><path d="M 1.640625 -3.265625 L 1.640625 0 L 0.84375 0 L 0.84375 -7.8125 L 3.234375 -7.8125 C 4.109375 -7.8125 4.769531 -7.597656 5.21875 -7.171875 C 5.675781 -6.753906 5.90625 -6.222656 5.90625 -5.578125 C 5.90625 -4.941406 5.726562 -4.425781 5.375 -4.03125 C 5.019531 -3.632812 4.492188 -3.390625 3.796875 -3.296875 L 6 0 L 4.984375 0 L 2.859375 -3.265625 Z M 1.640625 -7.15625 L 1.640625 -3.921875 L 3.234375 -3.921875 C 4.484375 -3.921875 5.109375 -4.457031 5.109375 -5.53125 C 5.109375 -6.613281 4.484375 -7.15625 3.234375 -7.15625 Z M 1.640625 -7.15625 "/></g></g></g><g fill="#f4f6fc" fill-opacity="1"><g transform="translate(208.472232, 261.07302)"><g><path d="M 3.46875 0 L 2.671875 0 L 2.671875 -3.078125 L 0.171875 -7.8125 L 1.015625 -7.8125 L 3.046875 -3.796875 L 5.09375 -7.8125 L 5.953125 -7.8125 L 3.46875 -3.078125 Z M 3.46875 0 "/></g></g></g></svg>