<svg xmlns="http://www.w3.org/2000/svg" xmlns:xlink="http://www.w3.org/1999/xlink" width="500" zoomAndPan="magnify" viewBox="0 0 375 374.999991" height="500" preserveAspectRatio="xMidYMid meet" version="1.0"><defs><g/><clipPath id="381bda6296"><path d="M 74 151.296875 L 101 151.296875 L 101 182 L 74 182 Z M 74 151.296875 " clip-rule="nonzero"/></clipPath><clipPath id="8f96698f01"><path d="M 44.003906 153 L 129.503906 153 L 129.503906 224.046875 L 44.003906 224.046875 Z M 44.003906 153 " clip-rule="nonzero"/></clipPath></defs><path fill="#00693f" d="M 84.207031 189.328125 C 84.671875 188.574219 85.113281 187.761719 85.554688 186.839844 C 85.898438 186.113281 86.207031 185.378906 86.476562 184.644531 C 86.683594 184.351562 86.886719 184.054688 87.078125 183.75 C 87.523438 183.054688 87.9375 182.339844 88.304688 181.605469 C 88.667969 180.871094 89.003906 180.121094 89.296875 179.355469 C 89.59375 178.59375 89.835938 177.808594 90.0625 177.023438 C 90.28125 176.234375 90.460938 175.4375 90.609375 174.628906 C 90.898438 173.015625 91.058594 171.378906 91.085938 169.734375 C 91.097656 168.910156 91.089844 168.089844 91.046875 167.265625 C 91.007812 166.445312 90.933594 165.621094 90.832031 164.804688 C 90.738281 163.988281 90.613281 163.175781 90.460938 162.371094 C 90.390625 162.003906 90.3125 161.640625 90.230469 161.28125 L 86.265625 161.296875 L 83.617188 161.292969 L 80.96875 161.28125 C 80.085938 161.28125 79.203125 161.269531 78.320312 161.261719 L 75.671875 161.230469 C 74.789062 161.226562 73.90625 161.203125 73.023438 161.191406 L 72.4375 161.179688 C 72.542969 161.710938 72.636719 162.246094 72.714844 162.78125 C 72.527344 162.785156 72.335938 162.785156 72.152344 162.789062 C 71.867188 162.792969 71.589844 162.792969 71.304688 162.796875 L 69.644531 162.8125 C 69.570312 162.480469 69.492188 162.148438 69.40625 161.820312 C 69.328125 161.515625 69.246094 161.214844 69.15625 160.921875 C 69.109375 160.773438 69.0625 160.625 69.015625 160.480469 L 68.945312 160.269531 L 68.910156 160.167969 L 68.878906 160.085938 L 68.101562 157.980469 L 70.375 157.9375 L 73.023438 157.890625 C 73.90625 157.878906 74.789062 157.855469 75.671875 157.851562 L 78.320312 157.820312 C 79.203125 157.8125 80.085938 157.800781 80.96875 157.800781 L 83.617188 157.789062 L 86.265625 157.785156 L 91.5625 157.804688 L 92.871094 157.808594 L 93.214844 159.03125 L 93.269531 159.226562 L 93.3125 159.402344 L 93.398438 159.746094 C 93.453125 159.96875 93.503906 160.195312 93.550781 160.417969 C 93.644531 160.867188 93.730469 161.3125 93.804688 161.761719 C 93.957031 162.65625 94.074219 163.554688 94.15625 164.453125 C 94.234375 165.351562 94.285156 166.253906 94.300781 167.160156 C 94.3125 168.0625 94.296875 168.964844 94.238281 169.871094 C 94.179688 170.773438 94.082031 171.671875 93.953125 172.570312 C 93.820312 173.46875 93.652344 174.359375 93.433594 175.242188 C 93.214844 176.121094 92.957031 176.996094 92.660156 177.851562 C 92.363281 178.710938 92.015625 179.550781 91.625 180.371094 C 91.234375 181.1875 90.808594 181.988281 90.332031 182.757812 C 89.855469 183.527344 89.335938 184.269531 88.785156 184.980469 L 88.363281 185.503906 L 87.921875 186.015625 C 87.777344 186.1875 87.621094 186.347656 87.46875 186.511719 C 87.3125 186.675781 87.164062 186.84375 87.003906 187 C 86.382812 187.644531 85.707031 188.226562 85.027344 188.796875 C 84.71875 189.046875 84.402344 189.285156 84.085938 189.519531 C 84.125 189.457031 84.167969 189.390625 84.207031 189.328125 " fill-opacity="1" fill-rule="nonzero"/><g clip-path="url(#381bda6296)"><path fill="#00693f" d="M 92.5625 180.820312 C 92.972656 179.953125 93.335938 179.070312 93.640625 178.195312 C 93.898438 177.453125 94.128906 176.6875 94.328125 175.914062 C 94.46875 175.660156 94.605469 175.40625 94.734375 175.148438 C 95.097656 174.410156 95.4375 173.664062 95.730469 172.898438 C 96.027344 172.136719 96.269531 171.351562 96.492188 170.5625 C 96.710938 169.777344 96.894531 168.976562 97.039062 168.171875 C 97.328125 166.558594 97.492188 164.917969 97.515625 163.273438 C 97.53125 162.453125 97.523438 161.628906 97.480469 160.808594 C 97.4375 159.984375 97.363281 159.164062 97.265625 158.347656 C 97.167969 157.527344 97.046875 156.714844 96.890625 155.910156 C 96.820312 155.546875 96.746094 155.183594 96.664062 154.824219 L 92.699219 154.839844 L 87.402344 154.824219 C 86.519531 154.824219 85.636719 154.808594 84.753906 154.800781 L 82.105469 154.773438 C 81.222656 154.765625 80.339844 154.746094 79.457031 154.730469 L 78.867188 154.71875 C 79.003906 155.390625 79.117188 156.0625 79.207031 156.738281 L 79.210938 156.769531 C 79.191406 156.769531 79.171875 156.769531 79.152344 156.769531 C 78.871094 156.773438 78.59375 156.777344 78.3125 156.78125 L 76.167969 156.800781 C 76.070312 156.316406 75.964844 155.835938 75.839844 155.359375 C 75.761719 155.058594 75.675781 154.757812 75.585938 154.460938 C 75.542969 154.3125 75.496094 154.167969 75.449219 154.023438 L 75.375 153.808594 L 75.339844 153.707031 L 75.308594 153.625 L 74.535156 151.519531 L 76.808594 151.480469 L 79.457031 151.433594 C 80.339844 151.417969 81.222656 151.398438 82.105469 151.390625 L 84.753906 151.363281 C 85.636719 151.355469 86.519531 151.339844 87.402344 151.339844 L 92.699219 151.324219 L 97.992188 151.34375 L 99.304688 151.347656 L 99.644531 152.574219 L 99.699219 152.769531 L 99.746094 152.941406 L 99.832031 153.285156 C 99.882812 153.511719 99.933594 153.734375 99.980469 153.960938 C 100.078125 154.410156 100.160156 154.855469 100.238281 155.300781 C 100.386719 156.195312 100.507812 157.09375 100.589844 157.992188 C 100.667969 158.894531 100.71875 159.796875 100.730469 160.699219 C 100.746094 161.601562 100.730469 162.507812 100.667969 163.410156 C 100.609375 164.3125 100.515625 165.214844 100.382812 166.109375 C 100.25 167.007812 100.085938 167.898438 99.863281 168.78125 C 99.648438 169.664062 99.390625 170.535156 99.09375 171.390625 C 98.796875 172.25 98.449219 173.089844 98.058594 173.910156 C 97.667969 174.730469 97.242188 175.53125 96.765625 176.300781 C 96.289062 177.070312 95.769531 177.808594 95.214844 178.519531 L 94.792969 179.046875 L 94.351562 179.554688 C 94.207031 179.726562 94.050781 179.890625 93.898438 180.054688 C 93.746094 180.214844 93.597656 180.382812 93.4375 180.539062 C 93 180.992188 92.53125 181.417969 92.058594 181.828125 C 92.226562 181.507812 92.394531 181.171875 92.5625 180.820312 " fill-opacity="1" fill-rule="nonzero"/></g><path fill="#5ab334" d="M 51.957031 190.5625 C 52.253906 190.417969 52.558594 190.285156 52.851562 190.136719 C 53.148438 189.980469 53.445312 189.84375 53.730469 189.675781 L 54.164062 189.441406 C 54.308594 189.363281 54.449219 189.273438 54.589844 189.191406 C 55.15625 188.863281 55.703125 188.5 56.234375 188.128906 L 56.625 187.835938 L 56.820312 187.691406 L 57.007812 187.539062 L 57.386719 187.234375 L 57.75 186.917969 C 58.230469 186.492188 58.691406 186.042969 59.113281 185.570312 C 59.542969 185.101562 59.941406 184.609375 60.300781 184.089844 C 60.660156 183.574219 61 183.042969 61.292969 182.488281 C 61.585938 181.9375 61.839844 181.367188 62.066406 180.789062 C 62.296875 180.207031 62.484375 179.613281 62.640625 179.007812 C 62.792969 178.40625 62.917969 177.792969 63.011719 177.175781 C 63.105469 176.558594 63.167969 175.9375 63.199219 175.3125 C 63.226562 174.6875 63.238281 174.058594 63.21875 173.429688 C 63.179688 172.175781 63.027344 170.917969 62.808594 169.679688 C 62.695312 169.058594 62.5625 168.445312 62.402344 167.835938 C 62.324219 167.535156 62.242188 167.234375 62.148438 166.9375 C 62.105469 166.789062 62.058594 166.644531 62.011719 166.5 L 61.9375 166.285156 L 61.902344 166.183594 L 61.871094 166.101562 L 61.097656 163.996094 L 63.371094 163.957031 L 66.019531 163.910156 C 66.902344 163.894531 67.785156 163.875 68.667969 163.867188 L 71.316406 163.839844 C 72.199219 163.832031 73.082031 163.816406 73.964844 163.816406 L 79.261719 163.800781 L 84.554688 163.820312 L 85.867188 163.824219 L 86.207031 165.046875 L 86.261719 165.246094 L 86.308594 165.417969 L 86.394531 165.761719 C 86.445312 165.988281 86.496094 166.210938 86.542969 166.4375 C 86.640625 166.882812 86.722656 167.332031 86.800781 167.777344 C 86.949219 168.671875 87.070312 169.570312 87.152344 170.46875 C 87.230469 171.371094 87.28125 172.273438 87.292969 173.175781 C 87.308594 174.078125 87.292969 174.984375 87.234375 175.886719 C 87.171875 176.789062 87.078125 177.691406 86.945312 178.585938 C 86.816406 179.484375 86.648438 180.375 86.425781 181.257812 C 86.210938 182.140625 85.953125 183.011719 85.65625 183.867188 C 85.359375 184.726562 85.011719 185.566406 84.621094 186.386719 C 84.230469 187.207031 83.804688 188.007812 83.328125 188.777344 C 82.851562 189.546875 82.332031 190.285156 81.777344 190.996094 L 81.355469 191.523438 L 80.914062 192.03125 C 80.769531 192.203125 80.613281 192.367188 80.464844 192.53125 C 80.308594 192.691406 80.160156 192.859375 80 193.015625 C 79.378906 193.660156 78.703125 194.246094 78.019531 194.8125 C 77.328125 195.371094 76.613281 195.894531 75.875 196.375 C 75.695312 196.5 75.503906 196.609375 75.316406 196.726562 C 75.132812 196.839844 74.945312 196.960938 74.753906 197.066406 C 74.371094 197.28125 73.996094 197.503906 73.601562 197.699219 L 73.019531 197.996094 L 72.425781 198.277344 C 72.035156 198.464844 71.632812 198.632812 71.230469 198.796875 C 71.03125 198.882812 70.828125 198.960938 70.625 199.035156 L 70.019531 199.261719 C 69.613281 199.410156 69.199219 199.539062 68.789062 199.675781 L 69.917969 199.042969 L 70.472656 198.714844 C 70.660156 198.605469 70.84375 198.496094 71.023438 198.378906 C 71.382812 198.148438 71.75 197.925781 72.101562 197.683594 L 72.628906 197.324219 L 73.148438 196.953125 C 73.5 196.714844 73.828125 196.445312 74.164062 196.191406 C 74.332031 196.058594 74.492188 195.921875 74.660156 195.789062 C 74.820312 195.65625 74.988281 195.527344 75.144531 195.382812 L 75.621094 194.96875 C 75.777344 194.832031 75.925781 194.679688 76.082031 194.539062 C 76.390625 194.257812 76.683594 193.957031 76.980469 193.660156 C 77.558594 193.054688 78.117188 192.4375 78.628906 191.785156 C 79.144531 191.132812 79.632812 190.464844 80.074219 189.765625 C 80.519531 189.070312 80.929688 188.359375 81.296875 187.625 C 81.660156 186.886719 82 186.140625 82.292969 185.375 C 82.589844 184.609375 82.832031 183.828125 83.054688 183.039062 C 83.273438 182.253906 83.457031 181.453125 83.601562 180.648438 C 83.890625 179.035156 84.054688 177.394531 84.078125 175.75 C 84.09375 174.929688 84.085938 174.105469 84.042969 173.28125 C 84.003906 172.460938 83.929688 171.640625 83.828125 170.824219 C 83.730469 170.003906 83.609375 169.191406 83.453125 168.386719 C 83.382812 168.019531 83.308594 167.660156 83.226562 167.300781 L 79.261719 167.316406 L 73.964844 167.300781 C 73.082031 167.300781 72.199219 167.285156 71.316406 167.277344 L 68.667969 167.25 C 67.785156 167.242188 66.902344 167.222656 66.019531 167.207031 L 65.429688 167.195312 C 65.566406 167.867188 65.679688 168.539062 65.769531 169.214844 C 65.953125 170.613281 66.019531 172.023438 65.980469 173.4375 C 65.957031 174.144531 65.90625 174.851562 65.8125 175.554688 C 65.722656 176.257812 65.601562 176.957031 65.441406 177.648438 C 65.28125 178.34375 65.085938 179.027344 64.847656 179.699219 C 64.609375 180.367188 64.332031 181.027344 64.015625 181.664062 C 63.699219 182.300781 63.335938 182.914062 62.945312 183.503906 C 62.550781 184.089844 62.113281 184.648438 61.648438 185.175781 C 61.1875 185.703125 60.683594 186.195312 60.160156 186.652344 C 59.636719 187.117188 59.078125 187.527344 58.511719 187.917969 C 57.945312 188.308594 57.34375 188.648438 56.746094 188.96875 C 56.136719 189.277344 55.523438 189.570312 54.890625 189.8125 C 54.265625 190.070312 53.625 190.28125 52.984375 190.472656 C 52.664062 190.570312 52.335938 190.652344 52.015625 190.742188 C 51.691406 190.820312 51.363281 190.886719 51.039062 190.964844 L 51.957031 190.5625 " fill-opacity="1" fill-rule="nonzero"/><path fill="#5ab334" d="M 78.226562 180.628906 C 78.226562 177.082031 76.167969 174.203125 73.625 174.203125 C 71.6875 174.203125 70.027344 175.875 69.347656 178.238281 C 69.71875 174.75 71.871094 172.074219 74.476562 172.074219 C 77.335938 172.074219 79.65625 175.308594 79.65625 179.304688 C 79.65625 182.660156 78.019531 185.480469 75.792969 186.296875 C 77.242188 185.214844 78.226562 183.082031 78.226562 180.628906 " fill-opacity="1" fill-rule="nonzero"/><g clip-path="url(#8f96698f01)"><path fill="#f68712" d="M 44 185.546875 L 66.683594 208.355469 L 129.503906 153.171875 L 66.578125 224.015625 L 44 185.546875 " fill-opacity="1" fill-rule="nonzero"/></g><g fill="#00693f" fill-opacity="1"><g transform="translate(116.123589, 198.500055)"><g><path d="M 25.40625 -1.28125 L 25.375 0 L 16.671875 0 L 16.5 -0.875 C 17.03125 -1.21875 17.804688 -1.59375 18.828125 -2 L 18.75 -9.359375 L 19.140625 -14.046875 L 14.078125 -0.4375 L 10.921875 0.1875 L 5.828125 -13.90625 L 6.265625 -9.359375 L 6.125 -1.75 L 8.4375 -1.28125 L 8.40625 0 L 0.84375 0 L 0.6875 -0.875 C 1.289062 -1.238281 2.101562 -1.628906 3.125 -2.046875 L 3.5 -16.046875 L 1.265625 -16.5 L 1.28125 -17.796875 L 8.515625 -17.796875 L 8.484375 -17.765625 L 13.328125 -4.265625 L 18.28125 -17.796875 L 24.671875 -17.796875 L 24.828125 -16.921875 C 24.242188 -16.554688 23.492188 -16.191406 22.578125 -15.828125 L 22.828125 -1.8125 Z M 25.40625 -1.28125 "/></g></g></g><g fill="#00693f" fill-opacity="1"><g transform="translate(143.224199, 198.500055)"><g><path d="M 9.140625 -18.5625 C 11.753906 -18.5625 13.898438 -17.648438 15.578125 -15.828125 C 17.253906 -14.015625 18.09375 -11.660156 18.09375 -8.765625 C 18.09375 -5.972656 17.273438 -3.722656 15.640625 -2.015625 C 14.003906 -0.304688 11.910156 0.546875 9.359375 0.546875 C 6.734375 0.546875 4.582031 -0.316406 2.90625 -2.046875 C 1.226562 -3.785156 0.390625 -6.066406 0.390625 -8.890625 C 0.390625 -11.742188 1.210938 -14.066406 2.859375 -15.859375 C 4.515625 -17.660156 6.609375 -18.5625 9.140625 -18.5625 Z M 6.78125 -15.765625 C 6.1875 -15.253906 5.703125 -14.421875 5.328125 -13.265625 C 4.953125 -12.117188 4.765625 -10.828125 4.765625 -9.390625 C 4.765625 -7.179688 5.203125 -5.375 6.078125 -3.96875 C 6.953125 -2.5625 8.203125 -1.859375 9.828125 -1.859375 C 10.242188 -1.859375 10.765625 -1.941406 11.390625 -2.109375 C 12.078125 -2.648438 12.628906 -3.515625 13.046875 -4.703125 C 13.472656 -5.890625 13.6875 -7.210938 13.6875 -8.671875 C 13.6875 -10.878906 13.238281 -12.675781 12.34375 -14.0625 C 11.445312 -15.457031 10.257812 -16.15625 8.78125 -16.15625 C 8.164062 -16.15625 7.5 -16.023438 6.78125 -15.765625 Z M 6.78125 -15.765625 "/></g></g></g><g fill="#00693f" fill-opacity="1"><g transform="translate(162.687401, 198.500055)"><g><path d="M 20.453125 -17.140625 C 19.878906 -16.785156 19.140625 -16.421875 18.234375 -16.046875 L 18.125 0 L 14.265625 0.359375 L 5.609375 -12.921875 L 6.015625 -9.546875 L 6.015625 -1.75 L 8.4375 -1.390625 L 8.40625 0 L 0.875 0 L 0.71875 -0.875 C 1.238281 -1.21875 2.007812 -1.59375 3.03125 -2 L 3.03125 -16.3125 L 1.125 -16.609375 L 1.15625 -18.015625 L 7.234375 -18.015625 L 7.203125 -17.984375 L 15.65625 -4.765625 L 15.25 -8.234375 L 15.25 -16.234375 L 12.59375 -16.609375 L 12.625 -18.015625 L 20.28125 -18.015625 Z M 20.453125 -17.140625 "/></g></g></g><g fill="#00693f" fill-opacity="1"><g transform="translate(184.860652, 198.500055)"><g><path d="M 15.515625 -5.453125 C 15.554688 -3.660156 15.445312 -1.84375 15.1875 0 L 0.875 0 L 0.71875 -0.875 C 1.238281 -1.21875 2.007812 -1.59375 3.03125 -2 L 3.03125 -16.375 L 1.015625 -16.609375 L 1.046875 -18.015625 L 15.328125 -18.015625 C 15.421875 -16.515625 15.273438 -14.78125 14.890625 -12.8125 L 12.59375 -12.8125 L 12.125 -15.515625 L 7.203125 -15.875 L 7.203125 -9.984375 L 13.078125 -10.453125 L 13.078125 -7.6875 L 7.203125 -7.9375 L 7.203125 -2.265625 L 12.3125 -2.625 L 13.21875 -5.609375 Z M 15.515625 -5.453125 "/></g></g></g><g fill="#00693f" fill-opacity="1"><g transform="translate(202.736146, 198.500055)"><g><path d="M 10.875 -1.71875 L 13.140625 -1.390625 L 13.109375 0 L 4.765625 0 L 4.59375 -0.875 C 5.164062 -1.21875 5.90625 -1.582031 6.8125 -1.96875 L 6.8125 -6.765625 L 1.671875 -16.375 L -0.0625 -16.609375 L -0.03125 -18.015625 L 7.28125 -18.015625 L 7.453125 -17.140625 L 5.90625 -16.34375 L 8.484375 -11.5 L 9.21875 -9.171875 L 9.390625 -9.171875 L 12.96875 -16.3125 L 10.953125 -16.609375 L 10.984375 -18.015625 L 17.65625 -18.015625 L 17.828125 -17.140625 C 17.347656 -16.847656 16.625 -16.488281 15.65625 -16.0625 L 10.875 -7.203125 Z M 10.875 -1.71875 "/></g></g></g><g fill="#00693f" fill-opacity="1"><g transform="translate(221.432863, 198.500055)"><g/></g></g><g fill="#00693f" fill-opacity="1"><g transform="translate(229.672631, 198.500055)"><g><path d="M 15.609375 -1.96875 L 9.984375 0.4375 C 7.742188 0.507812 5.894531 0.109375 4.4375 -0.765625 C 2.988281 -1.640625 1.9375 -2.785156 1.28125 -4.203125 C 0.625 -5.617188 0.296875 -7.144531 0.296875 -8.78125 C 0.296875 -10.46875 0.640625 -12.054688 1.328125 -13.546875 C 2.023438 -15.046875 3.066406 -16.253906 4.453125 -17.171875 C 5.847656 -18.097656 7.53125 -18.5625 9.5 -18.5625 C 11.613281 -18.5625 13.492188 -17.984375 15.140625 -16.828125 C 15.171875 -16.242188 15.128906 -15.457031 15.015625 -14.46875 C 14.910156 -13.488281 14.75 -12.632812 14.53125 -11.90625 L 12.015625 -11.90625 L 11.359375 -15.328125 C 10.097656 -15.878906 8.722656 -16.15625 7.234375 -16.15625 C 6.335938 -15.476562 5.664062 -14.523438 5.21875 -13.296875 C 4.769531 -12.078125 4.546875 -10.789062 4.546875 -9.4375 C 4.546875 -7.269531 5.070312 -5.546875 6.125 -4.265625 C 7.1875 -2.992188 8.625 -2.382812 10.4375 -2.4375 L 14.953125 -3.921875 Z M 15.609375 -1.96875 "/></g></g></g><g fill="#00693f" fill-opacity="1"><g transform="translate(246.590028, 198.500055)"><g><path d="M 21.265625 -1.390625 L 21.25 0 L 12.40625 0 L 12.234375 -0.875 C 12.765625 -1.21875 13.539062 -1.59375 14.5625 -2 L 14.5625 -7.78125 L 7.203125 -7.78125 L 7.203125 -1.75 L 9.71875 -1.390625 L 9.6875 0 L 0.875 0 L 0.71875 -0.875 C 1.238281 -1.21875 2.007812 -1.59375 3.03125 -2 L 3.03125 -16.3125 L 0.9375 -16.609375 L 0.953125 -18.015625 L 9.328125 -18.015625 L 9.5 -17.140625 C 8.820312 -16.734375 8.054688 -16.359375 7.203125 -16.015625 L 7.203125 -10.125 L 14.5625 -10.125 L 14.5625 -16.3125 L 12.453125 -16.609375 L 12.484375 -18.015625 L 20.890625 -18.015625 L 21.046875 -17.140625 C 20.460938 -16.773438 19.6875 -16.398438 18.71875 -16.015625 L 18.71875 -1.75 Z M 21.265625 -1.390625 "/></g></g></g><g fill="#00693f" fill-opacity="1"><g transform="translate(269.557127, 198.500055)"><g><path d="M 15.515625 -5.453125 C 15.554688 -3.660156 15.445312 -1.84375 15.1875 0 L 0.875 0 L 0.71875 -0.875 C 1.238281 -1.21875 2.007812 -1.59375 3.03125 -2 L 3.03125 -16.375 L 1.015625 -16.609375 L 1.046875 -18.015625 L 15.328125 -18.015625 C 15.421875 -16.515625 15.273438 -14.78125 14.890625 -12.8125 L 12.59375 -12.8125 L 12.125 -15.515625 L 7.203125 -15.875 L 7.203125 -9.984375 L 13.078125 -10.453125 L 13.078125 -7.6875 L 7.203125 -7.9375 L 7.203125 -2.265625 L 12.3125 -2.625 L 13.21875 -5.609375 Z M 15.515625 -5.453125 "/></g></g></g><g fill="#00693f" fill-opacity="1"><g transform="translate(287.432621, 198.500055)"><g><path d="M 15.609375 -1.96875 L 9.984375 0.4375 C 7.742188 0.507812 5.894531 0.109375 4.4375 -0.765625 C 2.988281 -1.640625 1.9375 -2.785156 1.28125 -4.203125 C 0.625 -5.617188 0.296875 -7.144531 0.296875 -8.78125 C 0.296875 -10.46875 0.640625 -12.054688 1.328125 -13.546875 C 2.023438 -15.046875 3.066406 -16.253906 4.453125 -17.171875 C 5.847656 -18.097656 7.53125 -18.5625 9.5 -18.5625 C 11.613281 -18.5625 13.492188 -17.984375 15.140625 -16.828125 C 15.171875 -16.242188 15.128906 -15.457031 15.015625 -14.46875 C 14.910156 -13.488281 14.75 -12.632812 14.53125 -11.90625 L 12.015625 -11.90625 L 11.359375 -15.328125 C 10.097656 -15.878906 8.722656 -16.15625 7.234375 -16.15625 C 6.335938 -15.476562 5.664062 -14.523438 5.21875 -13.296875 C 4.769531 -12.078125 4.546875 -10.789062 4.546875 -9.4375 C 4.546875 -7.269531 5.070312 -5.546875 6.125 -4.265625 C 7.1875 -2.992188 8.625 -2.382812 10.4375 -2.4375 L 14.953125 -3.921875 Z M 15.609375 -1.96875 "/></g></g></g><g fill="#00693f" fill-opacity="1"><g transform="translate(304.350017, 198.500055)"><g><path d="M 19.4375 -1.421875 L 19.40625 0 L 13.90625 0 L 8.328125 -7.828125 L 7.203125 -6.65625 L 7.203125 -1.71875 L 9.5 -1.390625 L 9.46875 0 L 0.875 0 L 0.71875 -0.875 C 1.238281 -1.21875 2.007812 -1.59375 3.03125 -2 L 3.03125 -16.3125 L 0.90625 -16.609375 L 0.9375 -18.015625 L 9.328125 -18.015625 L 9.5 -17.140625 C 8.820312 -16.734375 8.054688 -16.359375 7.203125 -16.015625 L 7.203125 -9.875 L 13.25 -16.34375 L 11.4375 -16.609375 L 11.46875 -18.015625 L 18.265625 -18.015625 L 18.421875 -17.140625 C 18.035156 -16.878906 17.28125 -16.539062 16.15625 -16.125 L 11.03125 -10.703125 L 17.734375 -1.703125 Z M 19.4375 -1.421875 "/></g></g></g><g fill="#f68712" fill-opacity="1"><g transform="translate(116.710074, 215.317949)"><g><path d="M 2.328125 0 L 0.875 0 L 0.875 -6.984375 L 4.875 -6.984375 L 4.875 -5.765625 L 2.328125 -5.765625 L 2.328125 -3.96875 L 4.703125 -3.96875 L 4.703125 -2.765625 L 2.328125 -2.765625 Z M 2.328125 0 "/></g></g></g><g fill="#f68712" fill-opacity="1"><g transform="translate(129.896583, 215.317949)"><g><path d="M 0.875 0 L 0.875 -6.984375 L 2.359375 -6.984375 L 2.359375 0 Z M 0.875 0 "/></g></g></g><g fill="#f68712" fill-opacity="1"><g transform="translate(140.95457, 215.317949)"><g><path d="M 7.078125 0 L 5.1875 0 L 2.15625 -5.28125 L 2.109375 -5.28125 C 2.171875 -4.351562 2.203125 -3.6875 2.203125 -3.28125 L 2.203125 0 L 0.875 0 L 0.875 -6.984375 L 2.75 -6.984375 L 5.78125 -1.75 L 5.8125 -1.75 C 5.757812 -2.65625 5.734375 -3.296875 5.734375 -3.671875 L 5.734375 -6.984375 L 7.078125 -6.984375 Z M 7.078125 0 "/></g></g></g><g fill="#f68712" fill-opacity="1"><g transform="translate(156.72299, 215.317949)"><g><path d="M 5.15625 0 L 4.640625 -1.65625 L 2.09375 -1.65625 L 1.59375 0 L 0 0 L 2.46875 -7.015625 L 4.28125 -7.015625 L 6.75 0 Z M 4.296875 -2.90625 C 3.828125 -4.40625 3.5625 -5.253906 3.5 -5.453125 C 3.445312 -5.648438 3.40625 -5.804688 3.375 -5.921875 C 3.269531 -5.515625 2.96875 -4.507812 2.46875 -2.90625 Z M 4.296875 -2.90625 "/></g></g></g><g fill="#f68712" fill-opacity="1"><g transform="translate(171.288749, 215.317949)"><g><path d="M 7.078125 0 L 5.1875 0 L 2.15625 -5.28125 L 2.109375 -5.28125 C 2.171875 -4.351562 2.203125 -3.6875 2.203125 -3.28125 L 2.203125 0 L 0.875 0 L 0.875 -6.984375 L 2.75 -6.984375 L 5.78125 -1.75 L 5.8125 -1.75 C 5.757812 -2.65625 5.734375 -3.296875 5.734375 -3.671875 L 5.734375 -6.984375 L 7.078125 -6.984375 Z M 7.078125 0 "/></g></g></g><g fill="#f68712" fill-opacity="1"><g transform="translate(187.057172, 215.317949)"><g><path d="M 3.84375 -5.84375 C 3.289062 -5.84375 2.859375 -5.632812 2.546875 -5.21875 C 2.242188 -4.800781 2.09375 -4.21875 2.09375 -3.46875 C 2.09375 -1.914062 2.675781 -1.140625 3.84375 -1.140625 C 4.332031 -1.140625 4.925781 -1.257812 5.625 -1.5 L 5.625 -0.265625 C 5.050781 -0.0234375 4.410156 0.09375 3.703125 0.09375 C 2.691406 0.09375 1.914062 -0.210938 1.375 -0.828125 C 0.832031 -1.441406 0.5625 -2.328125 0.5625 -3.484375 C 0.5625 -4.210938 0.691406 -4.847656 0.953125 -5.390625 C 1.222656 -5.929688 1.601562 -6.347656 2.09375 -6.640625 C 2.59375 -6.929688 3.175781 -7.078125 3.84375 -7.078125 C 4.519531 -7.078125 5.203125 -6.914062 5.890625 -6.59375 L 5.40625 -5.390625 C 5.144531 -5.515625 4.882812 -5.617188 4.625 -5.703125 C 4.363281 -5.796875 4.101562 -5.84375 3.84375 -5.84375 Z M 3.84375 -5.84375 "/></g></g></g><g fill="#f68712" fill-opacity="1"><g transform="translate(201.107505, 215.317949)"><g><path d="M 4.90625 0 L 0.875 0 L 0.875 -6.984375 L 4.90625 -6.984375 L 4.90625 -5.765625 L 2.359375 -5.765625 L 2.359375 -4.234375 L 4.71875 -4.234375 L 4.71875 -3.015625 L 2.359375 -3.015625 L 2.359375 -1.21875 L 4.90625 -1.21875 Z M 4.90625 0 "/></g></g></g></svg>