<svg xmlns="http://www.w3.org/2000/svg" xmlns:xlink="http://www.w3.org/1999/xlink" width="500" zoomAndPan="magnify" viewBox="0 0 375 374.999991" height="500" preserveAspectRatio="xMidYMid meet" version="1.0"><defs><g/><clipPath id="3369b25987"><path d="M 141 92.3125 L 243.855469 92.3125 L 243.855469 217 L 141 217 Z M 141 92.3125 " clip-rule="nonzero"/></clipPath><clipPath id="04c83db0f2"><path d="M 131.398438 150 L 217 150 L 217 215 L 131.398438 215 Z M 131.398438 150 " clip-rule="nonzero"/></clipPath></defs><g fill="#000b3b" fill-opacity="1"><g transform="translate(55.723825, 259.112904)"><g><path d="M 1.53125 0 L 1.53125 -19.0625 L 10.203125 -19.0625 C 12.722656 -19.0625 14.660156 -18.410156 16.015625 -17.109375 C 17.378906 -15.804688 18.0625 -14.207031 18.0625 -12.3125 C 18.0625 -10.425781 17.378906 -8.820312 16.015625 -7.5 C 14.660156 -6.175781 12.722656 -5.515625 10.203125 -5.515625 L 6.546875 -5.515625 L 6.546875 0 Z M 6.546875 -9.359375 L 10.171875 -9.359375 C 11.015625 -9.359375 11.707031 -9.625 12.25 -10.15625 C 12.789062 -10.6875 13.0625 -11.394531 13.0625 -12.28125 C 13.0625 -13.175781 12.789062 -13.890625 12.25 -14.421875 C 11.707031 -14.953125 11.015625 -15.21875 10.171875 -15.21875 L 6.546875 -15.21875 Z M 6.546875 -9.359375 "/></g></g></g><g fill="#000b3b" fill-opacity="1"><g transform="translate(80.85555, 259.112904)"><g><path d="M 20.3125 0 L 15 0 L 13.65625 -3.875 L 6.875 -3.875 L 5.546875 0 L 0.234375 0 L 6.484375 -19.0625 L 14.046875 -19.0625 Z M 12.8125 -7.828125 L 10.265625 -15.640625 L 7.71875 -7.828125 Z M 12.8125 -7.828125 "/></g></g></g><g fill="#000b3b" fill-opacity="1"><g transform="translate(107.910463, 259.112904)"><g><path d="M 18.0625 -12.328125 C 18.0625 -11.210938 17.769531 -10.113281 17.1875 -9.03125 C 16.613281 -7.945312 15.773438 -7.066406 14.671875 -6.390625 L 17.703125 0 L 12.15625 0 L 9.546875 -5.546875 L 6.546875 -5.546875 L 6.546875 0 L 1.53125 0 L 1.53125 -19.0625 L 10.390625 -19.0625 C 12.910156 -19.0625 14.816406 -18.414062 16.109375 -17.125 C 17.410156 -15.832031 18.0625 -14.234375 18.0625 -12.328125 Z M 6.546875 -9.359375 L 10.171875 -9.359375 C 11.015625 -9.359375 11.707031 -9.625 12.25 -10.15625 C 12.789062 -10.6875 13.0625 -11.394531 13.0625 -12.28125 C 13.0625 -13.175781 12.789062 -13.890625 12.25 -14.421875 C 11.707031 -14.953125 11.015625 -15.21875 10.171875 -15.21875 L 6.546875 -15.21875 Z M 6.546875 -9.359375 "/></g></g></g><g fill="#000b3b" fill-opacity="1"><g transform="translate(133.205174, 259.112904)"><g><path d="M 10.921875 0 L 5.90625 0 L 5.90625 -15.21875 L 0.390625 -15.21875 L 0.390625 -19.0625 L 16.421875 -19.0625 L 16.421875 -15.21875 L 10.921875 -15.21875 Z M 10.921875 0 "/></g></g></g><g fill="#000b3b" fill-opacity="1"><g transform="translate(156.544108, 259.112904)"><g><path d="M 6.546875 -11.609375 L 6.546875 0 L 1.53125 0 L 1.53125 -19.0625 L 7.171875 -19.0625 L 14.703125 -7.75 L 14.703125 -19.0625 L 19.71875 -19.0625 L 19.71875 0 L 14.203125 0 Z M 6.546875 -11.609375 "/></g></g></g><g fill="#000b3b" fill-opacity="1"><g transform="translate(184.316129, 259.112904)"><g><path d="M 1.53125 -19.0625 L 15.90625 -19.0625 L 15.90625 -15.21875 L 6.546875 -15.21875 L 6.546875 -11.40625 L 13.65625 -11.40625 L 13.65625 -7.5 L 6.546875 -7.5 L 6.546875 -3.84375 L 15.90625 -3.84375 L 15.90625 0 L 1.53125 0 Z M 1.53125 -19.0625 "/></g></g></g><g fill="#000b3b" fill-opacity="1"><g transform="translate(207.785441, 259.112904)"><g><path d="M 18.0625 -12.328125 C 18.0625 -11.210938 17.769531 -10.113281 17.1875 -9.03125 C 16.613281 -7.945312 15.773438 -7.066406 14.671875 -6.390625 L 17.703125 0 L 12.15625 0 L 9.546875 -5.546875 L 6.546875 -5.546875 L 6.546875 0 L 1.53125 0 L 1.53125 -19.0625 L 10.390625 -19.0625 C 12.910156 -19.0625 14.816406 -18.414062 16.109375 -17.125 C 17.410156 -15.832031 18.0625 -14.234375 18.0625 -12.328125 Z M 6.546875 -9.359375 L 10.171875 -9.359375 C 11.015625 -9.359375 11.707031 -9.625 12.25 -10.15625 C 12.789062 -10.6875 13.0625 -11.394531 13.0625 -12.28125 C 13.0625 -13.175781 12.789062 -13.890625 12.25 -14.421875 C 11.707031 -14.953125 11.015625 -15.21875 10.171875 -15.21875 L 6.546875 -15.21875 Z M 6.546875 -9.359375 "/></g></g></g><g fill="#000b3b" fill-opacity="1"><g transform="translate(233.080158, 259.112904)"><g><path d="M 18.8125 -6.390625 C 18.8125 -4.304688 18.203125 -2.71875 16.984375 -1.625 C 15.585938 -0.40625 13.347656 0.203125 10.265625 0.203125 C 7.828125 0.203125 5.757812 -0.265625 4.0625 -1.203125 C 2.375 -2.140625 1.367188 -3.617188 1.046875 -5.640625 L 6.84375 -5.640625 C 6.976562 -4.316406 8.128906 -3.65625 10.296875 -3.65625 C 11.617188 -3.65625 12.53125 -3.796875 13.03125 -4.078125 C 13.53125 -4.359375 13.78125 -4.859375 13.78125 -5.578125 C 13.78125 -5.765625 13.707031 -5.945312 13.5625 -6.125 C 13.425781 -6.300781 13.210938 -6.453125 12.921875 -6.578125 C 12.628906 -6.710938 12.335938 -6.832031 12.046875 -6.9375 C 11.753906 -7.050781 11.375 -7.160156 10.90625 -7.265625 C 10.4375 -7.378906 10.039062 -7.46875 9.71875 -7.53125 C 9.40625 -7.59375 8.992188 -7.664062 8.484375 -7.75 C 7.972656 -7.84375 7.625 -7.910156 7.4375 -7.953125 C 6.300781 -8.148438 5.28125 -8.453125 4.375 -8.859375 C 2.175781 -9.796875 1.078125 -11.242188 1.078125 -13.203125 C 1.078125 -15.179688 1.675781 -16.679688 2.875 -17.703125 C 4.21875 -18.847656 6.429688 -19.421875 9.515625 -19.421875 C 11.910156 -19.421875 13.976562 -18.898438 15.71875 -17.859375 C 17.46875 -16.816406 18.34375 -15.375 18.34375 -13.53125 L 12.515625 -13.53125 C 12.410156 -14.894531 11.421875 -15.578125 9.546875 -15.578125 C 8.484375 -15.578125 7.640625 -15.4375 7.015625 -15.15625 C 6.398438 -14.875 6.09375 -14.546875 6.09375 -14.171875 C 6.09375 -13.910156 6.1875 -13.660156 6.375 -13.421875 C 6.5625 -13.179688 6.851562 -12.96875 7.25 -12.78125 C 7.65625 -12.601562 8.03125 -12.445312 8.375 -12.3125 C 8.71875 -12.1875 9.191406 -12.050781 9.796875 -11.90625 C 10.410156 -11.769531 10.863281 -11.671875 11.15625 -11.609375 C 11.457031 -11.554688 11.890625 -11.476562 12.453125 -11.375 C 13.535156 -11.15625 14.554688 -10.863281 15.515625 -10.5 C 17.710938 -9.601562 18.8125 -8.234375 18.8125 -6.390625 Z M 18.8125 -6.390625 "/></g></g></g><g fill="#000b3b" fill-opacity="1"><g transform="translate(259.450541, 259.112904)"><g><path d="M 6.546875 0 L 1.53125 0 L 1.53125 -19.0625 L 6.546875 -19.0625 L 6.546875 -11.140625 L 13.46875 -11.140625 L 13.46875 -19.0625 L 18.484375 -19.0625 L 18.484375 0 L 13.46875 0 L 13.46875 -7.203125 L 6.546875 -7.203125 Z M 6.546875 0 "/></g></g></g><g fill="#000b3b" fill-opacity="1"><g transform="translate(285.983922, 259.112904)"><g><path d="M 1.5625 -19.0625 L 6.578125 -19.0625 L 6.578125 0 L 1.5625 0 Z M 1.5625 -19.0625 "/></g></g></g><g fill="#000b3b" fill-opacity="1"><g transform="translate(300.65225, 259.112904)"><g><path d="M 1.53125 0 L 1.53125 -19.0625 L 10.203125 -19.0625 C 12.722656 -19.0625 14.660156 -18.410156 16.015625 -17.109375 C 17.378906 -15.804688 18.0625 -14.207031 18.0625 -12.3125 C 18.0625 -10.425781 17.378906 -8.820312 16.015625 -7.5 C 14.660156 -6.175781 12.722656 -5.515625 10.203125 -5.515625 L 6.546875 -5.515625 L 6.546875 0 Z M 6.546875 -9.359375 L 10.171875 -9.359375 C 11.015625 -9.359375 11.707031 -9.625 12.25 -10.15625 C 12.789062 -10.6875 13.0625 -11.394531 13.0625 -12.28125 C 13.0625 -13.175781 12.789062 -13.890625 12.25 -14.421875 C 11.707031 -14.953125 11.015625 -15.21875 10.171875 -15.21875 L 6.546875 -15.21875 Z M 6.546875 -9.359375 "/></g></g></g><g fill="#ff4646" fill-opacity="1"><g transform="translate(112.027386, 280.553302)"><g><path d="M 0.5625 -6.828125 L 2.359375 -6.828125 L 2.359375 0 L 0.5625 0 Z M 0.5625 -6.828125 "/></g></g></g><g fill="#ff4646" fill-opacity="1"><g transform="translate(124.287545, 280.553302)"><g><path d="M 2.34375 -4.15625 L 2.34375 0 L 0.546875 0 L 0.546875 -6.828125 L 2.5625 -6.828125 L 5.265625 -2.78125 L 5.265625 -6.828125 L 7.0625 -6.828125 L 7.0625 0 L 5.09375 0 Z M 2.34375 -4.15625 "/></g></g></g><g fill="#ff4646" fill-opacity="1"><g transform="translate(141.239805, 280.553302)"><g><path d="M 2.390625 0 L 0.078125 -6.828125 L 2.046875 -6.828125 L 3.75 -1.46875 L 5.453125 -6.828125 L 7.40625 -6.828125 L 5.09375 0 Z M 2.390625 0 "/></g></g></g><g fill="#ff4646" fill-opacity="1"><g transform="translate(158.075348, 280.553302)"><g><path d="M 0.546875 -6.828125 L 5.703125 -6.828125 L 5.703125 -5.453125 L 2.34375 -5.453125 L 2.34375 -4.078125 L 4.890625 -4.078125 L 4.890625 -2.6875 L 2.34375 -2.6875 L 2.34375 -1.375 L 5.703125 -1.375 L 5.703125 0 L 0.546875 0 Z M 0.546875 -6.828125 "/></g></g></g><g fill="#ff4646" fill-opacity="1"><g transform="translate(173.486911, 280.553302)"><g><path d="M 6.734375 -2.28125 C 6.734375 -1.539062 6.515625 -0.972656 6.078125 -0.578125 C 5.578125 -0.148438 4.773438 0.0625 3.671875 0.0625 C 2.804688 0.0625 2.066406 -0.101562 1.453125 -0.4375 C 0.847656 -0.769531 0.488281 -1.296875 0.375 -2.015625 L 2.453125 -2.015625 C 2.492188 -1.546875 2.90625 -1.3125 3.6875 -1.3125 C 4.164062 -1.3125 4.492188 -1.359375 4.671875 -1.453125 C 4.847656 -1.554688 4.9375 -1.738281 4.9375 -2 C 4.9375 -2.0625 4.910156 -2.125 4.859375 -2.1875 C 4.804688 -2.25 4.726562 -2.300781 4.625 -2.34375 C 4.519531 -2.394531 4.414062 -2.441406 4.3125 -2.484375 C 4.207031 -2.523438 4.070312 -2.5625 3.90625 -2.59375 C 3.738281 -2.632812 3.597656 -2.664062 3.484375 -2.6875 C 3.367188 -2.71875 3.21875 -2.75 3.03125 -2.78125 C 2.851562 -2.8125 2.726562 -2.832031 2.65625 -2.84375 C 2.25 -2.914062 1.882812 -3.023438 1.5625 -3.171875 C 0.78125 -3.503906 0.390625 -4.023438 0.390625 -4.734375 C 0.390625 -5.441406 0.601562 -5.976562 1.03125 -6.34375 C 1.507812 -6.75 2.300781 -6.953125 3.40625 -6.953125 C 4.257812 -6.953125 5 -6.765625 5.625 -6.390625 C 6.257812 -6.015625 6.578125 -5.5 6.578125 -4.84375 L 4.484375 -4.84375 C 4.441406 -5.332031 4.085938 -5.578125 3.421875 -5.578125 C 3.035156 -5.578125 2.734375 -5.523438 2.515625 -5.421875 C 2.296875 -5.328125 2.1875 -5.210938 2.1875 -5.078125 C 2.1875 -4.984375 2.21875 -4.894531 2.28125 -4.8125 C 2.34375 -4.726562 2.445312 -4.648438 2.59375 -4.578125 C 2.738281 -4.515625 2.875 -4.457031 3 -4.40625 C 3.125 -4.363281 3.296875 -4.316406 3.515625 -4.265625 C 3.734375 -4.210938 3.894531 -4.175781 4 -4.15625 C 4.101562 -4.132812 4.253906 -4.109375 4.453125 -4.078125 C 4.847656 -3.992188 5.21875 -3.890625 5.5625 -3.765625 C 6.34375 -3.441406 6.734375 -2.945312 6.734375 -2.28125 Z M 6.734375 -2.28125 "/></g></g></g><g fill="#ff4646" fill-opacity="1"><g transform="translate(189.937277, 280.553302)"><g><path d="M 3.90625 0 L 2.109375 0 L 2.109375 -5.453125 L 0.140625 -5.453125 L 0.140625 -6.828125 L 5.875 -6.828125 L 5.875 -5.453125 L 3.90625 -5.453125 Z M 3.90625 0 "/></g></g></g><g fill="#ff4646" fill-opacity="1"><g transform="translate(205.302159, 280.553302)"><g><path d="M 4.109375 0 L 2.5625 -5.34375 L 2.234375 0 L 0.4375 0 L 0.640625 -3.421875 C 0.722656 -4.804688 0.789062 -5.941406 0.84375 -6.828125 L 3.890625 -6.828125 L 4.953125 -2.828125 L 6.03125 -6.828125 L 9.078125 -6.828125 C 9.128906 -5.941406 9.195312 -4.804688 9.28125 -3.421875 L 9.484375 0 L 7.6875 0 L 7.359375 -5.34375 L 5.8125 0 Z M 4.109375 0 "/></g></g></g><g fill="#ff4646" fill-opacity="1"><g transform="translate(224.565454, 280.553302)"><g><path d="M 0.546875 -6.828125 L 5.703125 -6.828125 L 5.703125 -5.453125 L 2.34375 -5.453125 L 2.34375 -4.078125 L 4.890625 -4.078125 L 4.890625 -2.6875 L 2.34375 -2.6875 L 2.34375 -1.375 L 5.703125 -1.375 L 5.703125 0 L 0.546875 0 Z M 0.546875 -6.828125 "/></g></g></g><g fill="#ff4646" fill-opacity="1"><g transform="translate(239.977017, 280.553302)"><g><path d="M 2.34375 -4.15625 L 2.34375 0 L 0.546875 0 L 0.546875 -6.828125 L 2.5625 -6.828125 L 5.265625 -2.78125 L 5.265625 -6.828125 L 7.0625 -6.828125 L 7.0625 0 L 5.09375 0 Z M 2.34375 -4.15625 "/></g></g></g><g fill="#ff4646" fill-opacity="1"><g transform="translate(256.929275, 280.553302)"><g><path d="M 3.90625 0 L 2.109375 0 L 2.109375 -5.453125 L 0.140625 -5.453125 L 0.140625 -6.828125 L 5.875 -6.828125 L 5.875 -5.453125 L 3.90625 -5.453125 Z M 3.90625 0 "/></g></g></g><g clip-path="url(#3369b25987)"><path fill="#ff4646" d="M 236.734375 189.964844 C 237.007812 189.691406 237.007812 189.394531 237.007812 189.394531 C 237.007812 189.394531 237.035156 189.691406 236.734375 189.964844 Z M 141.304688 135.796875 L 151.53125 128.710938 L 151.53125 119.070312 L 171.703125 119.070312 L 171.703125 126.457031 L 177.65625 129.28125 L 177.65625 106.855469 L 197.828125 106.855469 L 197.828125 126.703125 L 203.511719 121.871094 L 203.511719 92.382812 L 223.683594 92.382812 L 223.683594 105.714844 L 229.09375 101.179688 L 225.695312 96.644531 L 238.769531 98.355469 L 237.304688 111.660156 L 233.335938 106.558594 L 189.019531 142.3125 L 162.894531 129.550781 L 141.304688 143.726562 Z M 223.683594 120.753906 L 223.683594 159.609375 L 215.445312 161.320312 C 212.320312 161.59375 207.480469 161.890625 204.652344 160.75 C 204.378906 160.75 203.808594 160.476562 203.511719 160.476562 L 203.511719 137.210938 Z M 197.828125 141.746094 L 197.828125 159.90625 C 196.6875 159.90625 195.546875 159.90625 194.429688 160.179688 L 191.03125 159.039062 C 187.0625 157.332031 181.949219 158.769531 177.683594 160.453125 L 177.683594 143.15625 L 189.046875 148.832031 Z M 171.703125 140.332031 L 171.703125 162.734375 C 169.988281 163.574219 167.160156 163.574219 165.449219 162.734375 L 151.53125 156.785156 L 151.53125 143.15625 L 162.894531 135.773438 Z M 163.464844 197.050781 C 164.605469 198.464844 166.589844 201.3125 162.894531 203.296875 C 158.921875 205.277344 156.640625 202.453125 156.9375 200.175781 C 157.484375 196.507812 161.753906 195.640625 163.464844 197.050781 Z M 173.6875 204.4375 C 173.6875 204.4375 171.132812 208.972656 169.144531 209.542969 C 167.160156 209.8125 163.738281 208.699219 163.738281 206.714844 C 162.894531 198.761719 175.671875 199.332031 173.6875 204.4375 Z M 181.925781 208.699219 C 181.925781 208.699219 177.953125 213.234375 177.085938 213.53125 C 175.945312 213.804688 172.246094 214.101562 171.402344 211.820312 C 170.832031 209.839844 172.246094 208.425781 173.117188 207.285156 C 173.960938 206.144531 176.8125 203.59375 178.796875 204.164062 C 181.054688 205.007812 183.339844 206.714844 181.925781 208.699219 Z M 183.339844 208.972656 L 179.367188 213.234375 C 179.367188 213.234375 178.523438 214.375 179.097656 214.941406 C 179.667969 215.511719 182.792969 217.496094 185.917969 215.214844 C 188.75 212.664062 187.035156 208.128906 183.339844 208.972656 Z M 243.855469 157.925781 L 215.71875 163.601562 C 215.71875 163.601562 208.324219 164.738281 203.785156 163.03125 C 199.242188 161.320312 193.835938 162.460938 188.449219 164.167969 C 183.042969 166.152344 177.929688 166.722656 175.101562 171.554688 C 171.976562 176.089844 168.847656 180.054688 171.402344 181.191406 C 173.6875 182.605469 178.5 181.761719 181.925781 178.367188 C 185.324219 174.972656 187.035156 174.402344 188.175781 174.402344 C 189.320312 174.402344 195.273438 172.992188 197.828125 176.113281 C 200.113281 179.507812 217.132812 196.828125 217.132812 196.828125 C 217.132812 196.828125 222.542969 192.863281 225.371094 191.726562 C 226.511719 191.453125 231.328125 190.3125 237.304688 188.898438 C 241.574219 181.242188 243.832031 172.171875 243.832031 162.507812 C 243.855469 161.023438 243.855469 159.335938 243.855469 157.925781 Z M 235.890625 191.675781 C 235.890625 191.402344 235.890625 191.402344 236.164062 191.105469 C 235.890625 191.378906 235.890625 191.378906 235.890625 191.675781 Z M 236.164062 191.105469 C 236.164062 190.832031 236.4375 190.832031 236.4375 190.535156 C 236.460938 190.832031 236.164062 190.832031 236.164062 191.105469 Z M 236.164062 191.105469 " fill-opacity="1" fill-rule="nonzero"/></g><g clip-path="url(#04c83db0f2)"><path fill="#ff4646" d="M 132.5 150.8125 L 164.308594 164.988281 C 164.308594 164.988281 168.847656 166.695312 173.117188 164.714844 C 176.8125 163.300781 185.050781 159.3125 190.164062 161.320312 C 189.320312 161.320312 188.449219 161.59375 187.605469 161.890625 C 181.925781 163.871094 176.539062 164.441406 172.84375 170.117188 C 171.703125 172.097656 170.5625 173.808594 169.445312 175.792969 C 168.601562 177.5 167.460938 179.757812 168.601562 181.738281 C 168.875 182.582031 169.742188 183.152344 170.3125 183.449219 C 174.582031 185.429688 180.535156 183.175781 183.660156 180.054688 C 184.503906 178.914062 186.789062 176.929688 188.5 176.929688 C 190.210938 176.660156 194.453125 175.792969 195.894531 177.5 C 197.035156 179.210938 198.449219 180.625 199.589844 181.761719 C 201.578125 184.042969 203.5625 186.023438 205.273438 188.007812 C 208.671875 191.699219 212.097656 195.09375 215.222656 198.515625 L 216.363281 199.652344 C 217.777344 200.496094 214.949219 206.171875 210.683594 202.480469 L 199.617188 190.855469 C 199.617188 190.855469 198.773438 190.015625 198.203125 190.289062 C 197.632812 190.855469 198.203125 191.128906 198.773438 191.699219 L 208.152344 201.910156 C 208.152344 201.910156 210.433594 204.1875 208.152344 207.015625 C 206.167969 209.839844 203.3125 208.425781 201.625 207.015625 L 194.132812 199.605469 C 194.132812 199.605469 193.5625 199.035156 192.992188 199.332031 C 192.992188 199.332031 192.421875 199.902344 193.265625 200.472656 L 200.65625 207.855469 C 200.65625 207.855469 202.074219 209.839844 200.65625 211.820312 C 200.65625 211.820312 198.671875 214.375 195.820312 212.09375 C 192.691406 209.8125 187.582031 204.4375 187.582031 204.4375 C 187.582031 204.4375 186.441406 203.59375 186.167969 203.867188 C 185.597656 204.140625 186.441406 204.710938 186.738281 205.007812 C 187.035156 205.304688 194.40625 212.390625 194.40625 212.390625 C 194.40625 212.390625 194.976562 213.234375 193.835938 214.101562 C 192.992188 214.671875 190.433594 215.242188 189.292969 214.375 C 190.707031 210.976562 188.449219 206.714844 184.457031 206.417969 C 184.183594 204.710938 182.742188 203.296875 181.054688 202.453125 C 180.484375 202.183594 180.210938 202.183594 179.640625 201.882812 C 178.796875 201.613281 177.65625 201.613281 176.515625 201.882812 L 175.945312 201.613281 L 175.671875 201.613281 C 174.53125 198.785156 170.832031 197.917969 167.707031 198.488281 L 166.863281 197.917969 C 166.589844 197.078125 166.019531 196.210938 165.152344 195.367188 C 163.4375 193.953125 161.179688 193.65625 158.898438 194.523438 C 158.054688 194.796875 157.484375 195.367188 156.914062 195.9375 L 136.171875 185.15625 C 133.070312 178.046875 131.355469 170.390625 131.355469 162.460938 C 131.355469 158.46875 131.925781 154.503906 132.5 150.8125 Z M 132.5 150.8125 " fill-opacity="1" fill-rule="nonzero"/></g></svg>